<?xml version="1.0" encoding="utf-8"?>
<!-- Generator: Adobe Illustrator 27.5.0, SVG Export Plug-In . SVG Version: 6.00 Build 0)  -->
<svg version="1.1" xmlns="http://www.w3.org/2000/svg" xmlns:xlink="http://www.w3.org/1999/xlink" x="0px" y="0px"
	 viewBox="0 0 750 500" style="enable-background:new 0 0 750 500;" xml:space="preserve">
<g id="BACKGROUND">
	<rect style="fill:#FFFFFF;" width="750" height="500"/>
	<rect style="fill:#FFFFFF;" width="750" height="500"/>
</g>
<g id="OBJECTS">
	<g>
		<ellipse style="opacity:0.1;" cx="375" cy="389.714" rx="290.774" ry="19.948"/>
		<g>
			<g>
				<rect x="105.519" y="309.726" style="fill:#092329;" width="126.839" height="42.348"/>
				<g>
					<path style="fill:#0E3640;" d="M112.768,336.619H77.11v15.455h30.071C108.051,346.498,109.986,341.277,112.768,336.619z"/>
					<path style="fill:#0E3640;" d="M187.233,336.619c2.782,4.658,4.717,9.879,5.586,15.455h221.613v-15.455H187.233z"/>
				</g>
			</g>
			<g>
				<g>
					<g>
						<path style="fill:#0E3640;" d="M286.856,348.705c0-20.075-15.945-36.415-35.86-37.073v-0.004l-0.16,0
							c-0.361-0.01-0.721-0.027-1.085-0.027c-0.326,0-0.648,0.016-0.972,0.025l-17.732-0.025c-20.493,0-37.105,16.612-37.105,37.105
							c0,20.493,16.613,37.105,37.105,37.105l17.652-0.027c0.35,0.01,0.699,0.027,1.051,0.027c0.397,0,0.79-0.018,1.184-0.03
							l0.061,0v-0.001C270.911,385.121,286.856,368.78,286.856,348.705z"/>
						<g>
							<circle style="fill:#092329;" cx="231.048" cy="348.705" r="37.105"/>
							<circle style="opacity:0.15;" cx="231.047" cy="348.705" r="25.631"/>
						</g>
					</g>
				</g>
				<g>
					<g>
						<path style="fill:#0E3640;" d="M208.101,358.804c0-20.899-16.6-37.911-37.333-38.596v-0.004l-0.167,0
							c-0.376-0.011-0.75-0.029-1.129-0.029c-0.339,0-0.675,0.017-1.012,0.026L150,320.175c-21.334,0-38.629,17.295-38.629,38.629
							s17.295,38.629,38.629,38.629l18.378-0.028c0.365,0.01,0.727,0.028,1.094,0.028c0.413,0,0.822-0.018,1.233-0.031l0.063,0
							V397.4C191.501,396.715,208.101,379.703,208.101,358.804z"/>
						<g>
							
								<ellipse transform="matrix(0.9211 -0.3893 0.3893 0.9211 -127.8366 86.6881)" style="fill:#245E6B;" cx="150" cy="358.804" rx="38.629" ry="38.629"/>
							<circle style="fill:#0E3640;" cx="150" cy="358.804" r="26.684"/>
							
								<ellipse transform="matrix(0.9239 -0.3827 0.3827 0.9239 -125.8901 84.7149)" style="fill:#A1C2C9;" cx="150" cy="358.804" rx="19.472" ry="19.472"/>
						</g>
					</g>
				</g>
				<g>
					<path style="fill:#B4D8E0;" d="M69.065,108.024v228.661h43.665c7.556-12.704,21.416-21.222,37.27-21.222
						s29.714,8.517,37.27,21.222h227.162V108.024H69.065z"/>
					<path style="opacity:0.1;" d="M69.065,318.87v17.815h43.665c4.705-7.911,11.857-14.196,20.41-17.815H69.065z"/>
					<path style="opacity:0.1;" d="M166.86,318.87c8.554,3.618,15.705,9.903,20.41,17.815h227.162V318.87H166.86z"/>
					<path style="fill:#A1C2C9;" d="M395.241,281.539V137.133c0-5.497-4.225-9.953-9.437-9.953H97.693
						c-5.212,0-9.437,4.456-9.437,9.953v144.407c0,5.497,4.225,9.953,9.437,9.953h288.112
						C391.017,291.492,395.241,287.036,395.241,281.539z"/>
					
						<text transform="matrix(1 0 0 1 98.8502 161.3922)" style="fill:#688C94; font-family:'Montserrat-ExtraLight'; font-size:32.4705px;">DELIVERY</text>
					<polygon style="fill:#79A6B0;" points="145.263,241.969 206.648,277.409 206.648,277.409 206.648,259.488 262.719,259.488 
						262.719,259.487 262.719,224.45 206.648,224.45 206.648,206.528 					"/>
					
						<rect x="414.432" y="108.024" transform="matrix(-1 -1.224647e-16 1.224647e-16 -1 969.063 444.7084)" style="fill:#A1C2C9;" width="140.199" height="228.661"/>
					
						<rect x="414.432" y="318.87" transform="matrix(-1 -1.224647e-16 1.224647e-16 -1 969.063 655.5549)" style="opacity:0.1;" width="140.199" height="17.815"/>
					<path style="opacity:0.1;" d="M427.826,336.685h126.805V130.657H438.327c-5.799,0-10.5,4.701-10.5,10.5V336.685z"/>
					
						<rect x="438.32" y="304.004" transform="matrix(-1 -1.224647e-16 1.224647e-16 -1 992.9513 640.6887)" style="fill:#092329;" width="116.31" height="32.681"/>
					
						<rect x="414.432" y="336.685" transform="matrix(-1 -1.224647e-16 1.224647e-16 -1 969.063 688.863)" style="fill:#092329;" width="140.199" height="15.494"/>
				</g>
			</g>
			<polygon style="fill:#79A6B0;" points="374.336,192.912 312.951,157.471 312.951,157.471 312.951,175.393 256.879,175.393 
				256.879,175.393 256.879,210.43 312.951,210.43 312.951,228.352 			"/>
			<g>
				<g>
					<g>
						<path style="fill:#0E3640;" d="M618.185,348.705c0-20.075-15.945-36.415-35.86-37.073v-0.004l-0.16,0
							c-0.361-0.01-0.721-0.027-1.085-0.027c-0.326,0-0.648,0.016-0.972,0.025l-17.732-0.025c-20.492,0-37.105,16.612-37.105,37.105
							c0,20.493,16.613,37.105,37.105,37.105l17.652-0.027c0.35,0.01,0.699,0.027,1.051,0.027c0.397,0,0.79-0.018,1.184-0.03
							l0.061,0v-0.001C602.24,385.121,618.185,368.78,618.185,348.705z"/>
						<g>
							<circle style="fill:#092329;" cx="562.376" cy="348.705" r="37.105"/>
							<circle style="opacity:0.15;" cx="562.376" cy="348.705" r="25.631"/>
						</g>
					</g>
				</g>
				<g>
					<g>
						<path style="fill:#0E3640;" d="M539.43,358.804c0-20.899-16.6-37.911-37.333-38.596v-0.004l-0.167,0
							c-0.376-0.011-0.751-0.029-1.129-0.029c-0.339,0-0.675,0.017-1.012,0.026l-18.46-0.026c-21.334,0-38.629,17.295-38.629,38.629
							s17.295,38.629,38.629,38.629l18.378-0.028c0.365,0.01,0.727,0.028,1.094,0.028c0.413,0,0.822-0.018,1.233-0.031l0.063,0
							V397.4C522.83,396.715,539.43,379.703,539.43,358.804z"/>
						<g>
							
								<ellipse transform="matrix(0.226 -0.9741 0.9741 0.226 23.0239 746.5852)" style="fill:#245E6B;" cx="481.329" cy="358.804" rx="38.629" ry="38.629"/>
							<circle style="fill:#0E3640;" cx="481.329" cy="358.804" r="26.684"/>
							
								<ellipse transform="matrix(0.2385 -0.9711 0.9711 0.2385 18.0647 740.6469)" style="fill:#A1C2C9;" cx="481.329" cy="358.804" rx="19.472" ry="19.472"/>
						</g>
					</g>
				</g>
				<g>
					<g>
						<path style="fill:#BF453A;" d="M615.316,138.768H504.004l50.627,46.117L571.728,336.4h104.294V195.879
							c0-6.998-2.97-13.668-8.171-18.35l-36.017-32.422C627.3,141.026,621.416,138.768,615.316,138.768z"/>
						<path style="opacity:0.1;" d="M553.44,183.799l1.191,1.085L571.728,336.4h104.294V195.879c0-4.276-1.114-8.427-3.163-12.079
							H553.44z"/>
						<path style="opacity:0.15;" d="M661.117,176.727l-20.817-18.74c-1.299-1.168-2.975-1.812-4.722-1.812h-71.356
							c-2.947,0-5.535,1.778-6.591,4.53c-1.057,2.752-0.323,5.804,1.868,7.776l14.557,13.104c3.084,2.776,4.852,6.748,4.852,10.896
							v42.557c0,3.893,3.167,7.059,7.059,7.059h75.297c3.893,0,7.06-3.166,7.06-7.059V192.91
							C668.324,186.749,665.697,180.85,661.117,176.727z"/>
						<path style="fill:#0E3640;" d="M634.798,331.261h-20.352c-7.061,0-12.838-5.777-12.838-12.838v-20.352
							c0-7.061,5.777-12.838,12.838-12.838h20.352c7.061,0,12.838,5.777,12.838,12.838v20.352
							C647.636,325.483,641.859,331.261,634.798,331.261z"/>
						<path style="fill:#A1C2C9;" d="M651.195,298.151h-50.217c-1.615,0-2.936-1.321-2.936-2.936l0,0
							c0-1.615,1.321-2.936,2.936-2.936h50.217c1.615,0,2.936,1.321,2.936,2.936l0,0C654.13,296.83,652.809,298.151,651.195,298.151
							z"/>
						<path style="fill:#A1C2C9;" d="M651.195,308.823h-50.217c-1.615,0-2.936-1.321-2.936-2.936l0,0
							c0-1.615,1.321-2.936,2.936-2.936h50.217c1.615,0,2.936,1.321,2.936,2.936l0,0
							C654.13,307.502,652.809,308.823,651.195,308.823z"/>
						<path style="fill:#A1C2C9;" d="M651.195,319.495h-50.217c-1.615,0-2.936-1.321-2.936-2.936l0,0
							c0-1.615,1.321-2.936,2.936-2.936h50.217c1.615,0,2.936,1.321,2.936,2.936l0,0
							C654.13,318.174,652.809,319.495,651.195,319.495z"/>
						<path style="fill:#873029;" d="M608.32,334.323h-36.484v-60.638l28.958,10.906c4.528,1.706,7.526,6.038,7.526,10.877V334.323z
							"/>
						<path style="fill:#873029;" d="M643.882,334.323h32.14v-60.638l-25.086,10.725c-4.279,1.829-7.054,6.034-7.054,10.687V334.323
							z"/>
						<path style="fill:#FFFFFF;" d="M597.284,304.424h-14.411c-3.45,0-6.273-2.823-6.273-6.273l0,0c0-3.45,2.823-6.273,6.273-6.273
							h14.411c3.45,0,6.273,2.823,6.273,6.273l0,0C603.557,301.601,600.734,304.424,597.284,304.424z"/>
						<path style="fill:#FFD666;" d="M593.93,318.03h-7.704c-1.844,0-3.353-1.509-3.353-3.353l0,0c0-1.844,1.509-3.353,3.353-3.353
							h7.704c1.844,0,3.353,1.509,3.353,3.353l0,0C597.284,316.521,595.775,318.03,593.93,318.03z"/>
						<path style="fill:#FFFFFF;" d="M664.865,304.424h-9.825c-3.288,0-5.978-2.69-5.978-5.978v-0.59
							c0-3.288,2.69-5.978,5.978-5.978h9.825c3.288,0,5.978,2.69,5.978,5.978v0.59C670.842,301.734,668.152,304.424,664.865,304.424
							z"/>
						<path style="fill:#FFD666;" d="M662.42,318.03h-4.937c-1.844,0-3.353-1.509-3.353-3.353l0,0c0-1.844,1.509-3.353,3.353-3.353
							h4.937c1.844,0,3.354,1.509,3.354,3.353l0,0C665.774,316.521,664.265,318.03,662.42,318.03z"/>
						<g>
							<path style="fill:#FF5B4E;" d="M507.989,138.768h-65.737c-3.299,0-5.973,2.674-5.973,5.973v191.944h4.549
								c9.056-12.581,23.816-20.781,40.501-20.781s31.446,8.2,40.501,20.781h49.898V195.314c0-6.639-2.817-12.965-7.751-17.407
								l-34.183-30.77C523.809,141.749,516.042,138.768,507.989,138.768z"/>
						</g>
						<path style="fill:#B84238;" d="M555.339,192.696l-29.259-29.877c-5.123-4.646-11.772-7.216-18.665-7.216h-56.268
							c-2.824,0-5.113,2.306-5.113,5.151v111.565c0,5.189,4.246,9.302,9.434,9.296c0.032,0,0.064,0,0.096,0l0,0
							c30.651,0,58.974,16.352,74.3,42.897l0,0c0.336,0.582,0.655,1.17,0.976,1.758h31.133V207.706
							C561.974,201.982,559.562,196.526,555.339,192.696z"/>
						<path style="fill:#0E3640;" d="M475.651,253.813H456.67c-1.841,0-3.348-1.507-3.348-3.348l0,0
							c0-1.841,1.507-3.348,3.348-3.348h18.981c1.841,0,3.348,1.506,3.348,3.348l0,0
							C478.999,252.306,477.492,253.813,475.651,253.813z"/>
						<path style="fill:#86C9E0;" d="M581.985,192.482v42.557c0,2.2,1.783,3.983,3.983,3.983h75.296c2.2,0,3.983-1.783,3.983-3.983
							V192.91c0-5.3-2.249-10.351-6.188-13.896l-20.817-18.738c-0.731-0.658-1.681-1.023-2.665-1.023h-71.356
							c-3.65,0-5.378,4.501-2.665,6.943l14.557,13.104C579.852,182.663,581.985,187.455,581.985,192.482z"/>
						<path style="opacity:0.05;" d="M580.321,185.011c1.077,2.317,1.664,4.859,1.664,7.471v42.557c0,2.2,1.783,3.983,3.983,3.983
							h75.296c2.2,0,3.983-1.783,3.983-3.983V192.91c0-2.762-0.624-5.45-1.766-7.899H580.321z"/>
						<g style="opacity:0.2;">
							<path style="fill:#FFFFFF;" d="M570.039,168.739l12.729,11.929c1.234,1.157,2.266,2.499,3.075,3.968l50.21-21.955
								c-0.408-0.17-0.845-0.263-1.292-0.263h-61.864l-3.315,1.449C568.592,165.264,568.568,167.361,570.039,168.739z"/>
							<path style="fill:#FFFFFF;" d="M587.9,215.946l70.823-30.969c-0.88-1.697-2.025-3.251-3.431-4.569l-13.542-12.691
								l-53.92,23.578c0.037,0.456,0.07,0.913,0.07,1.375V215.946z"/>
							<path style="fill:#FFFFFF;" d="M591.383,235.037h26.515l42.805-18.717v-21.485L587.9,226.67v4.742
								C587.9,233.414,589.459,235.037,591.383,235.037z"/>
							<path style="fill:#FFFFFF;" d="M660.703,231.411v-1.17l-10.967,4.796h7.485C659.143,235.037,660.703,233.414,660.703,231.411
								z"/>
						</g>
					</g>
					<path style="fill:#0E3640;" d="M436.279,328.734c0,0,11.754-24.31,48-24.31c42.744,0,61.541,20.031,61.541,20.031h31.542v27.62
						h-48.989c0,0-9.858-34.228-48.113-34.228c-25.614,0-36.222,18.839-36.222,18.839h-7.758V328.734z"/>
					<path style="fill:#092329;" d="M675.648,352.074H573.596c-2.92,0-5.287-2.367-5.287-5.287v-17.046
						c0-2.92,2.367-5.287,5.287-5.287h102.052c2.92,0,5.287,2.367,5.287,5.287v17.046
						C680.935,349.707,678.568,352.074,675.648,352.074z"/>
				</g>
			</g>
			<path style="opacity:0.15;" d="M458.505,161.392h53.501c5.396,0,10.6,2.243,14.598,6.293l28.458,30.014
				c1.767,1.79,2.775,4.33,2.775,6.995v26.022c0,5.214-3.784,9.442-8.451,9.442h-90.88c-4.667,0-8.451-4.227-8.451-9.442v-59.882
				C450.054,165.62,453.837,161.392,458.505,161.392z"/>
			<path style="fill:#9EE2FA;" d="M461.1,164.954h49.237c4.966,0,9.755,2.04,13.435,5.724l26.19,27.3
				c1.626,1.628,2.554,3.939,2.554,6.362v23.668c0,4.743-3.482,8.588-7.778,8.588H461.1c-4.296,0-7.778-3.845-7.778-8.588v-54.466
				C453.323,168.799,456.805,164.954,461.1,164.954z"/>
			<g style="opacity:0.2;">
				<path style="fill:#FFFFFF;" d="M459.717,214.471l44.674-44.674h-38.221c-3.564,0-6.453,3.325-6.453,7.427V214.471z"/>
				<path style="fill:#FFFFFF;" d="M542.019,224.327v-20.469c0-1.531-0.414-3.007-1.161-4.241l-32.137,32.137h26.845
					C539.13,231.754,542.019,228.428,542.019,224.327z"/>
				<path style="fill:#FFFFFF;" d="M466.171,231.754h25.992l40.865-40.865l-14.858-16.142c-1.21-1.263-2.569-2.292-4.021-3.087
					l-54.276,54.276C460.513,229.263,463.087,231.754,466.171,231.754z"/>
			</g>
		</g>
	</g>
</g>
</svg>
