<?xml version="1.0" encoding="utf-8"?>
<!-- Generator: Adobe Illustrator 27.5.0, SVG Export Plug-In . SVG Version: 6.00 Build 0)  -->
<svg version="1.1" xmlns="http://www.w3.org/2000/svg" xmlns:xlink="http://www.w3.org/1999/xlink" x="0px" y="0px"
	 viewBox="0 0 750 500" style="enable-background:new 0 0 750 500;" xml:space="preserve">
<g id="BACKGROUND">
	<rect style="opacity:0.25;fill:#FFFFFF;" width="750" height="500"/>
</g>
<g id="OBJECTS">
	<g>
		<defs>
			<rect id="SVGID_1_" width="750" height="500"/>
		</defs>
		<clipPath id="SVGID_00000075140546388645640010000006255218331542871741_">
			<use xlink:href="#SVGID_1_"  style="overflow:visible;"/>
		</clipPath>
		<g style="clip-path:url(#SVGID_00000075140546388645640010000006255218331542871741_);">
			<path style="opacity:0.25;fill:#26CBDF;" d="M764.569,262.575c-0.601-7.955-1.24-15.906-1.848-23.86
				c-0.068-0.89-0.714-1.699-1.678-1.679c-11.468,0.242-22.987,0.253-34.447,0.907c0.064-3.387-0.02-6.794-0.04-10.169
				c-0.001-0.151,0.001-0.303,0.001-0.454c0.002-0.109,0.003-0.219,0.005-0.328c0.04-2.332,0.075-4.664,0.107-6.996
				c0.028-2.066,0.022-6.846,0.022-7.06c0-0.707-0.561-1.166-1.221-1.221c-1.835-0.154-3.683-0.234-5.524-0.237
				c-1.366-0.002-2.922-0.138-4.306,0.178c-1.138-0.154-2.358-0.095-3.407-0.154c-2.132-0.12-4.266-0.223-6.399-0.306
				c-4.268-0.167-8.538-0.262-12.809-0.288c-8.625-0.053-41.176,0.805-41.431,2.095c-0.589,2.974-1.683,19.818-1.703,20.205
				c-0.259,5.038-0.212,57.016-0.277,77.942c-0.036,11.792-0.09,23.584-0.119,35.376c-0.002,0.852,0.747,1.664,1.627,1.627
				c30.748-1.289,61.535-1.638,92.302-0.908c8.645,0.205,17.299,0.433,25.935,0.896c0.802,0.043,1.611-0.75,1.558-1.558
				C769.071,318.564,766.683,290.574,764.569,262.575z"/>
			<path style="opacity:0.25;fill:#26CBDF;" d="M189.806,360.555c1.469-32.908,3.502-137.557,3.285-153.611
				c-0.217-16.071-0.113-32.148,0.414-48.212c0.03-0.925-0.847-1.852-1.793-1.793c-21.614,1.364-43.225,2.769-64.835,4.186
				c-6.081,0.399-12.156,0.906-18.235,1.344c-0.181,0.013-0.34,0.057-0.489,0.114c-0.628,0.136-1.195,0.617-1.263,1.438
				c-0.686,8.278-0.949,16.606-1.384,24.901c-0.439,8.383-0.87,16.765-1.278,25.15c-0.094,1.926-0.165,5.326-0.23,7.251
				c-3.56,0.525-7.108-0.332-10.646,0.329c0.021-1.295,0.01-2.593,0.043-3.868c0.063-2.387,0.286-11.936,0.336-14.323
				c0.048-2.288,0.218-4.773-0.278-7.025c0.02-0.025,0.038-0.045,0.058-0.072c0.287-0.387,0.183-0.914,0-1.309
				c-0.764-1.655-35.431-1.24-41.41-0.212c0.002-0.456,0.003-0.912,0.006-1.369c0.018-2.729,0.048-5.458,0.09-8.186
				c0.083-5.375,0.538-68.23-0.532-68.196l-3.496,0.108c-2.33,0.072-4.661,0.144-6.991,0.216c-4.661,0.144-9.321,0.289-13.982,0.44
				c-9.321,0.301-18.642,0.601-27.963,0.902c-5.345,0.172-17.219,1.703-17.132,2.344c-1.855-0.077-3.711-0.152-5.566-0.233
				c-0.884-0.038-1.686,0.794-1.665,1.665c0.788,32.732,1.44,65.464,1.764,98.204c0.324,32.739,0.377,65.481,0.138,98.22
				c-0.134,18.321-0.328,36.641-0.656,54.959c-0.016,0.915,0.78,1.658,1.672,1.672c29.189,0.471,58.38,0.881,87.571,1.284
				c29.106,0.402,58.211,0.82,87.316,1.26c12.151,0.184,24.301,0.394,36.451,0.606C189.315,372.677,189.536,366.615,189.806,360.555
				z"/>
		</g>
		<g style="clip-path:url(#SVGID_00000075140546388645640010000006255218331542871741_);">
			<path style="fill:#4AC78D;" d="M776.151,335.009c-1.394-1.632-2.413-1.382-4.535-1.327c-3.552,0.092-7.104,0.185-10.656,0.278
				c-6.831,0.18-13.661,0.359-20.492,0.539c-27.595,0.726-55.191,1.443-82.786,2.152c-54.918,1.411-109.835,2.892-164.753,4.312
				c-54.918,1.419-109.835,2.891-164.753,4.321c-54.918,1.43-109.835,2.883-164.753,4.321
				c-55.191,1.446-110.382,2.903-165.572,4.368c-13.075,0.347-26.148,0.77-39.221,1.192c-0.919-0.721-2.412-0.638-2.611,0.797
				c-1.453,10.473-2.963,20.939-4.444,31.408c-0.155,1.099,0.445,2.336,1.743,2.287c54.888-2.083,109.767-4.465,164.649-6.708
				c55.156-2.254,110.311-4.541,165.468-6.762c54.884-2.21,109.766-4.464,164.649-6.71c54.883-2.246,109.766-4.488,164.649-6.724
				c27.579-1.124,55.155-2.315,82.734-3.425c13.652-0.55,27.305-1.1,40.957-1.649c6.657-0.268,13.321-0.466,19.974-0.814
				c4.787-0.251,9.778-0.741,14.09-3.009C776.794,350.539,781.458,341.22,776.151,335.009z"/>
			<g>
				<path style="fill:#837B9C;" d="M772.087,352.67c-8.639-10.25-24.251-7.618-36.07-7.332c-16.349,0.397-32.699,0.795-49.048,1.19
					c-32.967,0.796-65.934,1.593-98.901,2.389c-65.934,1.593-131.868,3.186-197.802,4.792
					c-65.935,1.606-131.868,3.261-197.802,4.901c-65.934,1.639-131.875,3.115-197.802,5.006c-6.149,0.176-12.297,0.359-18.446,0.541
					c-0.032-1.394-0.063-2.788-0.095-4.182c-0.05-2.198-3.472-2.206-3.422,0c0.032,1.427,0.064,2.855,0.096,4.282
					c-0.752,0.022-1.504,0.044-2.256,0.066c-1.705,0.05-1.715,2.689,0,2.656c0.772-0.015,1.544-0.032,2.316-0.047
					c0.681,30.161,1.357,60.321,2.036,90.482c0.362,16.106,0.725,32.211,1.087,48.317c0.18,7.992,0.3,15.987,0.542,23.978
					c0.156,5.184,0.843,10.475,4.968,14.073c3.633,3.169,8.682,4.038,13.353,4.21c6.925,0.255,13.958-0.69,20.858-1.168
					c15.992-1.106,31.988-2.164,47.986-3.174c31.997-2.019,64.007-3.846,96.026-5.479c64.572-3.294,129.184-5.808,193.817-7.539
					c64.366-1.724,128.752-2.669,193.14-2.834c64.383-0.166,128.786,0.321,193.151,1.872c8.013,0.193,16.026,0.399,24.039,0.616
					c0.958,0.026,1.587-0.788,1.666-1.666c2.93-32.665,5.757-65.34,8.63-98.01c1.411-16.039,3.127-32.084,4.205-48.149
					C779.026,372.516,778.865,360.712,772.087,352.67z"/>
				<path style="fill:#5D586E;" d="M716.354,370.583c-15.805-2.208-31.58-3.963-47.54-5.052c-15.814-1.08-31.725-1.716-47.583-1.513
					c-7.885,0.101-15.886,0.152-23.758,0.891c-0.182-0.636-0.731-1.124-1.672-1.025c-61.636,6.488-426.989,27.202-455.025,27.792
					c-18.249,0.384-90.696,6.152-108.398,9.995c-0.979,0.212-2.016,0.465-2.698,1.157c-0.682,0.692-0.772,1.973,0.079,2.475
					c5.299,0.257,10.594,1.562,15.904,2.091c4.079,0.407,8.176,0.48,12.259,0.805c7.848,0.625,15.698,1.222,23.548,1.81
					c15.526,1.162,31.052,2.311,46.582,3.416c31.236,2.223,62.482,4.356,93.745,6.217c17.479,1.04,34.964,2.174,52.461,2.904
					c15.216,0.264,349.027-35.532,377.446-38.459c6.951-0.716,13.899-1.453,20.845-2.211c8.905-0.973,17.805-1.98,26.701-3.023
					c7.688-0.901,15.228-1.95,22.823-3.38c1.013-0.191,2.162-0.476,2.616-1.346c0.253-0.484,0.215-1.096-0.11-1.54
					c-1.06-1.45-4.431-1.465-6.049-1.696C717.805,370.786,717.08,370.684,716.354,370.583z"/>
				<path style="fill:#FFFFFF;" d="M529.706,437.928c-26.392-2.322-53.023-2.08-79.488-2.373c-10.609,2.13-21.217,4.265-31.822,6.42
					c-25.553,5.193-51.096,10.431-76.619,15.771c-25.65,5.366-51.288,10.786-76.914,16.266
					c-25.498,5.452-50.977,10.997-76.443,16.595c-25.592,5.626-51.18,11.275-76.71,17.177c-3.176,0.734-6.325,1.543-9.468,2.408
					c-1.467,0.404-0.834,2.503,0.619,2.245c0.228-0.041,0.456-0.086,0.685-0.127c-0.122,0.722,0.291,1.528,1.253,1.526
					c13.81-0.034,27.616-0.505,41.42-0.883c13.807-0.378,27.614-0.752,41.42-1.141c27.613-0.779,55.227-1.544,82.84-2.331
					c15.47-0.441,30.94-0.875,46.411-1.307c0.944-0.026,1.464-0.701,1.563-1.431c26.956-10.423,54.176-20.169,81.587-29.328
					c27.541-9.202,55.289-17.799,83.203-25.796c7.754-2.221,15.522-4.397,23.296-6.549c3.887-1.076,7.77-2.166,11.656-3.246
					c4.038-1.122,8.141-2.093,12.078-3.534C530.365,438.255,530.153,438.127,529.706,437.928z"/>
				<path style="fill:#FFFFFF;" d="M708.418,390.94c-5.709-0.132-11.375-0.032-17.032,0.146c-20.781,4.32-41.562,8.644-62.31,13.118
					c-6.093,1.314-17.49,3.683-22.119,4.589c5.061,0.031,28.551,1.179,35.247,1.563c2.662,0.153,5.515,0.054,8.35,0.07
					c4.795-1.185,9.587-2.386,14.38-3.579c14.471-3.602,28.948-7.177,43.409-10.82c7.365-1.855,14.731-3.706,22.094-5.568
					C723.136,390.928,715.83,391.111,708.418,390.94z"/>
			</g>
		</g>
	</g>
	<g>
		<g>
			<path style="fill:#252237;" d="M677.693,324.866c-2.74-2.465-6.833-2.765-10.334-2.999c-4.563-0.304-9.149-0.019-13.692,0.434
				c-2.464,0.245-4.927,0.525-7.381,0.855c-2.002,0.27-4.031,0.621-5.789,1.677c-2.505,1.503-4.038,4.573-3.046,7.258
				c-0.596,1.63-0.374,3.75,0.28,5.2c1.43,3.17,5.003,4.491,8.269,4.635c4.253,0.188,8.339-1.505,12.591-1.558
				c4.138-0.052,8.295,0.529,12.38-0.409c3.422-0.786,6.688-2.739,8.162-6.042C680.478,330.901,680.262,327.177,677.693,324.866z"/>
			<path style="fill:#14A4BA;" d="M692.3,360.473c-0.14-1.537-0.296-3.073-0.466-4.607c-0.342-3.083-0.741-6.158-1.178-9.229
				c-0.435-3.061-0.914-6.106-1.487-9.145c-0.301-1.596-0.617-3.188-0.984-4.771c-0.263-1.133-0.454-2.408-0.944-3.5
				c0.527-0.625,0.471-1.76-0.557-2.036c-4.094-1.098-9.042-1.929-13.248-0.995c-1.709,0.379-3.224,1.389-3.77,3.118
				c-0.648,2.055-0.246,4.606-0.214,6.721c0.152,9.977,0.306,19.954,0.451,29.931c0.01,0.676,0.532,1.117,1.173,1.174
				c6.886,0.604,14.27,0.936,21.01-0.817c0.41-0.107,0.537-0.488,0.452-0.816c0.015-0.056,0.04-0.107,0.045-0.169
				C692.711,363.731,692.446,362.067,692.3,360.473z"/>
			<path style="fill:#252237;" d="M538.398,325.413c-0.008-1.132-0.001-2.267,0.035-3.406c0.059-1.881,0.089-3.88-0.876-5.495
				c-1.69-2.829-5.987-2.885-8.882-3.223c-4.141-0.483-8.282-0.961-12.426-1.414c-8.122-0.888-16.255-1.687-24.404-2.283
				c-13.893-1.015-27.792-0.914-41.68-1.351c-5.52-0.173-11.04-0.349-16.559-0.516c-2.82-0.085-5.64-0.17-8.46-0.255
				c-2.223-0.067-4.457-0.209-6.665,0.128c-2.005,0.306-3.982,1.121-5.309,2.71c-1.448,1.736-1.904,3.935-2.11,6.13
				c-0.505,5.393-0.598,10.852-0.894,16.261c-0.301,5.507-0.644,11.014-0.901,16.523c-0.207,4.45,0.209,9.199,3.869,12.251
				c4.374,3.646,10.284,4.21,15.686,4.236c6.888,0.034,13.776,0.054,20.664,0.06c13.776,0.013,27.552-0.029,41.328-0.126
				c13.369-0.094,26.815-0.246,39.964-2.662c1.788-0.328,3.712-0.782,4.867-2.185c0.965-1.172,1.188-2.769,1.358-4.277
				c0.509-6.111,1.172-12.188,1.472-18.318C538.684,333.931,538.43,329.696,538.398,325.413z"/>
			<path style="fill:#252237;" d="M592.454,340.429c-0.302-2.21-0.769-4.398-1.435-6.527c-0.326-1.041-0.697-2.069-1.113-3.078
				c-0.329-0.797-0.674-1.636-1.28-2.268c-0.743-0.774-1.488-0.986-2.208-0.834c-0.699-0.116-1.439-0.104-2.14-0.143
				c-1.053-0.059-2.107-0.112-3.161-0.157c-0.433-0.018-0.866-0.024-1.298-0.04c-1.595-0.061-3.189-0.117-4.785-0.147
				c-1.055-0.02-2.11-0.033-3.165-0.036c-0.353-0.001-0.709-0.007-1.066-0.012c-0.723-0.669-1.447-0.855-2.148-0.707
				c-0.739-0.123-1.52-0.109-2.26-0.151c-0.866-0.048-1.732-0.09-2.598-0.129l0,0c-0.247-0.011-0.493-0.026-0.74-0.037
				c-2.141-0.091-4.282-0.156-6.424-0.197c-1.114-0.021-2.228-0.035-3.342-0.038c-0.284-0.001-0.57-0.005-0.857-0.01
				c-0.861-0.014-1.729-0.029-2.578,0.053c-0.168,0.016-1.348,0.077-2.794,0.75c-0.413,0.192-0.848,0.435-1.288,0.74
				c-0.439,0.305-0.883,0.674-1.314,1.119c-0.862,0.89-1.671,2.085-2.29,3.691c-0.155,0.402-0.297,0.829-0.426,1.284
				c-0.155,0.549-0.312,1.093-0.467,1.633c-1.091,3.782-2.153,7.39-2.581,11.353c-0.074,0.686-0.133,1.374-0.177,2.062
				c-0.089,1.376-0.121,2.756-0.104,4.135c0.009,0.69,0.03,1.379,0.062,2.069c-0.02,0.471-0.034,0.942-0.041,1.413
				c-0.015,0.943-0.003,1.885,0.043,2.827c0.023,0.471,0.054,0.942,0.095,1.412c0.098,1.123,0.245,2.24,0.456,3.345
				c0.211,1.105,0.485,2.197,0.835,3.27c0.163,0.498,0.338,1.003,0.533,1.502c0.587,1.497,1.365,2.94,2.581,3.996
				c0.078,0.067,0.172,0.133,0.281,0.197c0.435,0.256,1.1,0.483,1.862,0.68c0.19,0.049,0.387,0.096,0.587,0.141
				c0.601,0.135,1.238,0.253,1.854,0.35c0.205,0.033,0.408,0.063,0.607,0.091c0.397,0.057,0.776,0.104,1.121,0.143
				c0.172,0.019,0.336,0.036,0.489,0.051c0.459,0.044,0.821,0.067,1.03,0.067h0l0,0c1.532,0.003,3.064,0.001,4.596-0.001
				c1.625-0.001,3.249-0.015,4.874-0.025l0,0c1.397-0.008,2.793-0.013,4.19-0.021c0.656-0.004,1.333-0.029,1.987-0.146
				c0.893,0.159,1.819,0.078,2.684-0.341c0.418-0.202,0.783-0.466,1.115-0.765c1.205,0.001,2.41,0,3.615-0.001
				c2.861-0.002,5.722-0.026,8.583-0.043c0.621-0.004,1.262-0.028,1.882-0.139c0.845,0.15,1.722,0.073,2.542-0.323
				c1.792-0.867,2.701-2.798,3.181-4.627c1.191-4.54,1.996-9.278,2.485-13.943C593.013,349.437,593.065,344.902,592.454,340.429z"/>
		</g>
		<g>
			<path style="fill:#47415C;" d="M676.879,340.489c-0.079-1.975-0.157-3.95-0.276-5.924c-0.087-1.433,0.229-3.8-1.632-4.18
				c-0.777-0.158-1.615-0.12-2.403-0.156c-1.07-0.049-2.14-0.092-3.21-0.127c-2.058-0.067-4.117-0.108-6.176-0.126
				c-1.071-0.009-2.142-0.012-3.213-0.004c-1.093,0.009-2.214-0.04-3.302,0.076c-0.368,0.039-5.816,0.357-7.721,7.369
				c-1.15,4.233-2.376,8.153-2.802,12.511c-0.258,2.641-0.28,5.298-0.129,7.946c-0.057,1.812-0.026,3.625,0.15,5.432
				c0.21,2.157,0.611,4.289,1.306,6.345c0.646,1.91,1.475,3.916,3.048,5.253c1.206,1.025,6.471,1.586,7.543,1.577
				c1.472-0.012,2.945-0.03,4.417-0.046c2.904-0.032,5.807-0.086,8.711-0.134c1.064-0.018,2.192-0.056,3.153-0.566
				c1.029-0.546,1.538-1.575,1.713-2.688c0.239-1.522,0.254-3.097,0.361-4.633c0.095-1.372,0.387-2.877,0.129-4.251
				c0.293-3.805,0.377-7.638,0.438-11.451C677.05,348.638,677.043,344.562,676.879,340.489z"/>
			<path style="fill:#252237;" d="M664.26,353.068c0.088-4.496,0.59-8.979,1.549-13.374c0.71-3.251,1.696-6.444,2.74-9.608
				c-1.789-0.052-3.578-0.094-5.367-0.11c-1.071-0.009-2.142-0.012-3.213-0.004c-1.093,0.009-2.213-0.04-3.302,0.076
				c-0.206,0.022-2.006,0.133-3.884,1.457c-1.352,3.115-1.867,6.757-2.378,9.886c-1.833,11.235-1.569,22.785,0.839,33.914
				c1.874,0.769,5.895,1.184,6.817,1.176c1.472-0.012,2.945-0.03,4.417-0.046c1.637-0.018,3.274-0.048,4.912-0.075
				C665.227,368.796,664.106,360.948,664.26,353.068z"/>
			<path style="fill:#47415C;" d="M681.002,343.187c-0.329-2.24-0.826-4.456-1.524-6.61c-0.341-1.054-0.729-2.093-1.162-3.113
				c-0.342-0.805-0.701-1.653-1.323-2.289c-3.307-3.377-6.564,3.915-7.565,6.104c-1.824,3.989-2.886,8.291-3.312,12.65
				c-0.258,2.641-0.28,5.298-0.129,7.946c-0.057,1.812-0.026,3.625,0.15,5.432c0.21,2.157,0.611,4.289,1.306,6.345
				c0.646,1.91,1.475,3.916,3.048,5.253c1.429,1.215,3.446,1.747,5.187,0.883c1.81-0.899,2.712-2.868,3.181-4.729
				c1.162-4.621,1.93-9.438,2.377-14.179C681.662,352.324,681.668,347.72,681.002,343.187z"/>
			<path style="fill:#6B6580;" d="M673.368,331.151c-2.166,1.642-3.454,4.126-4.357,6.635c-1.102,3.064-1.805,6.283-2.346,9.489
				c-1.098,6.516-1.617,13.506-0.01,19.984c0.393,1.585,0.876,3.119,1.6,4.587c0.678,1.374,1.579,3.111,2.914,3.944
				c0.292,0.182,0.591-0.17,0.448-0.448c-0.314-0.611-0.777-1.113-1.178-1.669c-0.422-0.585-0.815-1.194-1.17-1.821
				c-0.712-1.256-1.3-2.6-1.757-3.97c-1.002-3.005-1.145-6.174-1.131-9.313c0.028-6.453,1.056-12.903,2.949-19.07
				c0.896-2.92,2.149-5.704,4.534-7.705C674.216,331.499,673.739,330.869,673.368,331.151z"/>
			<path style="fill:#E3E3E3;" d="M679.256,349.864c-0.096-2.789-0.286-5.687-0.991-8.398c-0.395-1.52-1.705-5.642-4.005-4.015
				c-0.963,0.682-1.142,2.051-1.374,3.115c-0.316,1.444-0.55,2.902-0.748,4.366c-0.407,3.013-0.77,6.041-1.043,9.069
				c-0.303,3.363-0.44,6.764-0.081,10.129c0.125,1.167,0.323,2.34,0.755,3.432c0.248,0.928,0.637,1.852,1.37,2.461
				c0.796,0.661,1.979,0.879,2.861,0.26c0.898-0.63,1.129-1.846,1.386-2.837C678.873,361.724,679.46,355.769,679.256,349.864z"/>
			<path style="fill:#ADADAD;" d="M676.469,348.418c-0.029-2.09,0.216-4.655-1.218-6.375c-0.632-0.759-1.563-1.164-2.442-1.1
				c-0.276,1.321-0.49,2.652-0.671,3.99c-0.407,3.013-0.77,6.041-1.043,9.069c-0.303,3.363-0.44,6.764-0.081,10.129
				c0.125,1.167,0.323,2.34,0.755,3.432c0.073,0.273,0.16,0.544,0.262,0.808c0.795,0.018,1.576-0.289,2.149-0.998
				c1.132-1.4,1.266-3.555,1.522-5.261C676.385,357.579,676.533,352.996,676.469,348.418z"/>
			<path style="fill:#E3E3E3;" d="M674.13,345.818c-0.174-0.73-0.588-1.388-1.307-1.673c-0.175-0.07-0.366-0.108-0.555-0.118
				c-0.028,0.192-0.055,0.385-0.082,0.577c1.483,0.047,1.355,2.97,1.367,4.052c0.021,1.999,0.055,3.997-0.003,5.996
				c-0.059,2.02-0.177,4.044-0.467,6.045c-0.114,0.784-0.255,1.667-0.776,2.298c-0.39,0.473-0.845,0.604-1.34,0.581
				c0.017,0.185,0.03,0.371,0.049,0.556c0.016,0.151,0.038,0.302,0.057,0.453c0.79-0.063,1.642-0.618,2.048-1.202
				c0.99-1.424,0.95-3.535,1.107-5.191c0.2-2.112,0.283-4.232,0.282-6.353c-0.001-1.104-0.029-2.203-0.095-3.304
				C674.36,347.638,674.339,346.695,674.13,345.818z"/>
			<path style="fill:#FFE699;" d="M672.031,346.713c-0.037-0.026-0.079-0.038-0.118-0.06c-0.315,2.445-0.596,4.896-0.817,7.349
				c-0.231,2.569-0.364,5.159-0.255,7.739c0.455-0.091,0.872-0.426,1.083-0.855c0.189-0.384,0.226-0.82,0.254-1.24
				c0.045-0.681,0.076-1.363,0.113-2.045c0.142-2.638,0.319-5.289,0.379-7.93C672.69,348.739,672.941,347.342,672.031,346.713z"/>
		</g>
		<g>
			<path style="fill:#47415C;" d="M658.957,339.982c-0.084-2.086-0.165-4.172-0.291-6.257c-0.091-1.513,0.242-4.014-1.723-4.414
				c-0.82-0.167-1.706-0.127-2.538-0.165c-1.13-0.052-2.26-0.097-3.39-0.134c-2.174-0.07-4.348-0.114-6.523-0.133
				c-1.131-0.01-2.262-0.013-3.393-0.004c-1.154,0.009-2.338-0.043-3.487,0.08c-0.389,0.042-6.142,0.377-8.154,7.783
				c-1.214,4.47-2.509,8.61-2.959,13.213c-0.272,2.789-0.296,5.595-0.136,8.392c-0.06,1.913-0.028,3.828,0.158,5.737
				c0.222,2.277,0.645,4.53,1.379,6.701c0.682,2.017,1.557,4.135,3.219,5.548c1.273,1.083,6.834,1.675,7.966,1.666
				c1.555-0.013,3.11-0.031,4.665-0.049c3.067-0.034,6.133-0.09,9.2-0.141c1.123-0.019,2.315-0.059,3.33-0.598
				c1.086-0.577,1.625-1.663,1.809-2.839c0.252-1.608,0.268-3.271,0.381-4.893c0.1-1.449,0.409-3.039,0.137-4.49
				c0.31-4.018,0.398-8.067,0.463-12.093C659.138,348.589,659.13,344.284,658.957,339.982z"/>
			<path style="fill:#252237;" d="M651.766,329.043c-0.251-0.009-0.501-0.022-0.752-0.03c-2.174-0.07-4.348-0.114-6.523-0.133
				c-1.131-0.01-2.262-0.013-3.393-0.004c-1.154,0.009-2.338-0.043-3.487,0.08c-0.389,0.042-6.142,0.377-8.154,7.783
				c-1.214,4.47-2.509,8.61-2.959,13.213c-0.273,2.789-0.296,5.595-0.136,8.392c-0.06,1.913-0.028,3.828,0.158,5.737
				c0.222,2.277,0.645,4.53,1.379,6.701c0.682,2.017,1.557,4.135,3.219,5.548c1.273,1.083,6.834,1.675,7.966,1.666
				c1.555-0.013,3.11-0.031,4.665-0.049c1.649-0.018,3.298-0.049,4.947-0.076c-5.33-12.458-5.676-26.929-1.15-39.694
				C648.675,334.992,650.186,332.007,651.766,329.043z"/>
			<path style="fill:#47415C;" d="M663.311,342.831c-0.348-2.366-0.872-4.706-1.61-6.981c-0.36-1.113-0.77-2.211-1.227-3.287
				c-0.362-0.851-0.74-1.746-1.397-2.417c-3.493-3.567-6.932,4.134-7.99,6.446c-1.927,4.212-3.048,8.756-3.498,13.359
				c-0.273,2.789-0.296,5.595-0.136,8.392c-0.06,1.913-0.028,3.828,0.158,5.737c0.221,2.277,0.645,4.53,1.379,6.701
				c0.682,2.017,1.557,4.135,3.219,5.548c1.509,1.283,3.64,1.845,5.478,0.933c1.912-0.949,2.865-3.029,3.359-4.995
				c1.227-4.88,2.038-9.968,2.51-14.974C664.009,352.481,664.015,347.619,663.311,342.831z"/>
			<path style="fill:#6B6580;" d="M655.249,330.12c-2.288,1.734-3.648,4.357-4.601,7.008c-1.164,3.236-1.907,6.636-2.477,10.021
				c-1.16,6.882-1.708,14.264-0.01,21.105c0.416,1.674,0.925,3.294,1.69,4.844c0.716,1.451,1.668,3.285,3.077,4.165
				c0.308,0.192,0.625-0.18,0.473-0.473c-0.332-0.645-0.821-1.176-1.245-1.763c-0.446-0.618-0.86-1.26-1.236-1.923
				c-0.752-1.326-1.373-2.746-1.855-4.192c-1.059-3.173-1.209-6.52-1.195-9.836c0.03-6.815,1.115-13.627,3.114-20.14
				c0.946-3.084,2.27-6.024,4.788-8.137C656.144,330.488,655.641,329.823,655.249,330.12z"/>
			<path style="fill:#E3E3E3;" d="M661.467,349.883c-0.102-2.945-0.302-6.006-1.046-8.869c-0.417-1.605-1.801-5.959-4.23-4.24
				c-1.017,0.72-1.206,2.166-1.451,3.29c-0.333,1.525-0.581,3.065-0.79,4.611c-0.43,3.182-0.813,6.38-1.101,9.578
				c-0.32,3.552-0.465,7.144-0.085,10.697c0.132,1.233,0.341,2.472,0.798,3.625c0.262,0.98,0.672,1.956,1.447,2.599
				c0.841,0.698,2.09,0.928,3.021,0.275c0.948-0.665,1.192-1.949,1.464-2.996C661.063,362.409,661.683,356.12,661.467,349.883z"/>
			<path style="fill:#ADADAD;" d="M658.524,348.356c-0.031-2.207,0.228-4.916-1.286-6.733c-0.668-0.802-1.651-1.23-2.579-1.161
				c-0.291,1.395-0.518,2.801-0.708,4.214c-0.43,3.182-0.813,6.38-1.101,9.578c-0.32,3.552-0.465,7.144-0.085,10.697
				c0.132,1.233,0.341,2.472,0.798,3.625c0.077,0.288,0.169,0.574,0.277,0.853c0.84,0.019,1.664-0.305,2.27-1.054
				c1.195-1.479,1.337-3.755,1.608-5.556C658.435,358.031,658.591,353.191,658.524,348.356z"/>
			<path style="fill:#E3E3E3;" d="M656.054,345.61c-0.184-0.771-0.621-1.465-1.381-1.767c-0.185-0.073-0.386-0.114-0.587-0.124
				c-0.03,0.203-0.058,0.406-0.087,0.609c1.566,0.05,1.432,3.137,1.444,4.28c0.023,2.111,0.058,4.221-0.004,6.332
				c-0.063,2.134-0.187,4.271-0.493,6.384c-0.12,0.828-0.27,1.76-0.819,2.427c-0.412,0.5-0.893,0.638-1.415,0.614
				c0.018,0.195,0.031,0.391,0.052,0.587c0.017,0.16,0.04,0.319,0.06,0.478c0.835-0.066,1.734-0.653,2.163-1.27
				c1.046-1.504,1.003-3.733,1.169-5.482c0.211-2.231,0.299-4.469,0.297-6.71c-0.001-1.165-0.031-2.326-0.1-3.49
				C656.297,347.532,656.274,346.536,656.054,345.61z"/>
			<path style="fill:#FFE699;" d="M653.837,346.555c-0.039-0.027-0.084-0.04-0.125-0.063c-0.332,2.582-0.63,5.171-0.863,7.762
				c-0.244,2.713-0.385,5.449-0.269,8.174c0.48-0.096,0.921-0.45,1.144-0.903c0.199-0.406,0.239-0.866,0.268-1.31
				c0.047-0.719,0.081-1.44,0.119-2.16c0.15-2.786,0.337-5.586,0.4-8.376C654.533,348.695,654.798,347.219,653.837,346.555z"/>
		</g>
		<g>
			<path style="fill:#47415C;" d="M507.966,339.279c-0.123-3.057-0.242-6.112-0.427-9.166c-0.134-2.217,0.354-5.88-2.525-6.466
				c-1.202-0.245-2.499-0.186-3.718-0.242c-1.655-0.076-3.311-0.143-4.966-0.196c-3.184-0.103-6.37-0.167-9.556-0.195
				c-1.657-0.014-3.314-0.019-4.97-0.005c-1.691,0.013-3.425-0.062-5.108,0.117c-0.569,0.061-8.998,0.552-11.946,11.401
				c-1.779,6.548-3.676,12.614-4.335,19.357c-0.399,4.086-0.433,8.196-0.2,12.294c-0.089,2.803-0.04,5.608,0.232,8.404
				c0.324,3.337,0.945,6.636,2.02,9.816c0.999,2.955,2.282,6.058,4.715,8.128c1.865,1.586,10.011,2.454,11.67,2.44
				c2.278-0.019,4.556-0.046,6.834-0.071c4.493-0.05,8.985-0.132,13.478-0.207c1.646-0.027,3.391-0.086,4.879-0.876
				c1.591-0.845,2.38-2.437,2.65-4.159c0.369-2.355,0.393-4.791,0.558-7.168c0.147-2.122,0.599-4.452,0.2-6.577
				c0.454-5.887,0.583-11.818,0.678-17.717C508.23,351.887,508.22,345.58,507.966,339.279z"/>
			<path style="fill:#252237;" d="M490.38,336.305c1.398-4.831,3.655-9.091,6.573-13.071c-0.208-0.007-0.415-0.018-0.623-0.025
				c-3.184-0.103-6.37-0.167-9.556-0.195c-1.657-0.015-3.314-0.019-4.97-0.005c-1.691,0.013-3.425-0.062-5.108,0.117
				c-0.41,0.044-4.904,0.313-8.485,4.522c-1.231,3.475-2.022,7.179-2.791,10.704c-2.256,10.329-3.242,20.95-2.897,31.518
				c0.172,5.269,0.678,10.525,1.497,15.734c0.206,1.311,0.434,2.628,0.7,3.937c0.67,1.113,1.467,2.14,2.464,2.987
				c1.865,1.586,10.011,2.454,11.67,2.44c2.278-0.019,4.556-0.046,6.834-0.071c1.969-0.022,3.938-0.06,5.908-0.091
				c-3.059-7.062-4.007-15.049-4.137-22.71c-0.102-6.001,0.109-12.029,0.402-18.023C488.15,348.092,488.709,342.076,490.38,336.305z
				"/>
			<path style="fill:#47415C;" d="M514.344,343.453c-0.509-3.466-1.278-6.894-2.358-10.227c-0.528-1.63-1.128-3.239-1.798-4.816
				c-0.53-1.246-1.084-2.558-2.047-3.541c-5.117-5.225-10.156,6.056-11.705,9.444c-2.823,6.171-4.466,12.828-5.125,19.571
				c-0.399,4.086-0.433,8.197-0.2,12.294c-0.089,2.803-0.04,5.608,0.232,8.404c0.324,3.337,0.945,6.636,2.02,9.816
				c0.999,2.955,2.282,6.058,4.715,8.128c2.21,1.88,5.332,2.703,8.025,1.366c2.801-1.39,4.197-4.437,4.921-7.317
				c1.798-7.149,2.986-14.602,3.677-21.937C515.366,357.59,515.375,350.467,514.344,343.453z"/>
			<path style="fill:#6B6580;" d="M502.533,324.831c-3.352,2.541-5.344,6.383-6.741,10.266c-1.705,4.74-2.793,9.721-3.629,14.681
				c-1.699,10.082-2.502,20.897-0.015,30.919c0.609,2.453,1.355,4.826,2.476,7.097c1.049,2.125,2.443,4.813,4.508,6.102
				c0.452,0.282,0.915-0.263,0.694-0.693c-0.486-0.945-1.203-1.723-1.823-2.583c-0.653-0.905-1.26-1.847-1.811-2.817
				c-1.102-1.943-2.011-4.023-2.718-6.142c-1.551-4.648-1.771-9.552-1.75-14.409c0.044-9.984,1.634-19.963,4.562-29.505
				c1.386-4.518,3.326-8.825,7.015-11.921C503.845,325.369,503.108,324.395,502.533,324.831z"/>
			<path style="fill:#E3E3E3;" d="M511.643,353.783c-0.149-4.315-0.443-8.799-1.533-12.993c-0.611-2.352-2.638-8.729-6.196-6.212
				c-1.49,1.055-1.766,3.173-2.126,4.82c-0.488,2.234-0.851,4.49-1.157,6.755c-0.63,4.662-1.191,9.346-1.613,14.032
				c-0.468,5.203-0.681,10.466-0.125,15.671c0.193,1.806,0.499,3.621,1.169,5.311c0.384,1.435,0.985,2.865,2.12,3.808
				c1.232,1.023,3.062,1.36,4.426,0.403c1.389-0.974,1.747-2.856,2.145-4.39C511.051,372.134,511.959,362.919,511.643,353.783z"/>
			<path style="fill:#ADADAD;" d="M507.332,351.546c-0.045-3.234,0.334-7.201-1.884-9.863c-0.979-1.175-2.419-1.801-3.779-1.701
				c-0.427,2.044-0.758,4.103-1.038,6.173c-0.63,4.662-1.191,9.346-1.613,14.032c-0.468,5.203-0.681,10.466-0.125,15.671
				c0.193,1.806,0.499,3.621,1.169,5.311c0.113,0.422,0.248,0.841,0.406,1.249c1.23,0.028,2.438-0.447,3.326-1.545
				c1.751-2.166,1.959-5.5,2.355-8.139C507.201,365.719,507.43,358.63,507.332,351.546z"/>
			<path style="fill:#E3E3E3;" d="M503.712,347.523c-0.269-1.13-0.909-2.147-2.023-2.589c-0.271-0.108-0.566-0.168-0.859-0.182
				c-0.044,0.297-0.086,0.595-0.127,0.893c2.294,0.073,2.097,4.595,2.115,6.269c0.033,3.093,0.085,6.184-0.005,9.277
				c-0.092,3.126-0.273,6.256-0.723,9.353c-0.176,1.214-0.395,2.579-1.2,3.555c-0.604,0.732-1.308,0.934-2.074,0.899
				c0.026,0.286,0.046,0.573,0.076,0.859c0.025,0.234,0.059,0.467,0.088,0.701c1.223-0.097,2.54-0.956,3.169-1.86
				c1.532-2.203,1.47-5.469,1.712-8.031c0.309-3.268,0.437-6.548,0.435-9.83c-0.001-1.707-0.045-3.408-0.146-5.112
				C504.068,350.339,504.036,348.88,503.712,347.523z"/>
			<path style="fill:#FFE699;" d="M500.465,348.908c-0.058-0.04-0.123-0.059-0.183-0.092c-0.487,3.782-0.923,7.576-1.265,11.371
				c-0.358,3.974-0.563,7.983-0.394,11.974c0.703-0.141,1.349-0.659,1.676-1.323c0.292-0.594,0.35-1.269,0.393-1.919
				c0.069-1.054,0.118-2.109,0.175-3.164c0.219-4.082,0.494-8.183,0.586-12.27C501.485,352.043,501.872,349.881,500.465,348.908z"/>
		</g>
		<g>
			<path style="fill:#47415C;" d="M477.186,338.809c-0.127-3.167-0.251-6.334-0.443-9.498c-0.139-2.297,0.367-6.093-2.616-6.701
				c-1.245-0.254-2.59-0.193-3.853-0.25c-1.715-0.078-3.431-0.148-5.146-0.204c-3.3-0.107-6.601-0.173-9.902-0.202
				c-1.717-0.015-3.434-0.019-5.151-0.006c-1.752,0.014-3.549-0.065-5.293,0.122c-0.59,0.063-9.324,0.572-12.379,11.814
				c-1.843,6.786-3.809,13.071-4.492,20.059c-0.414,4.234-0.449,8.493-0.207,12.74c-0.092,2.905-0.042,5.811,0.24,8.709
				c0.336,3.457,0.98,6.877,2.094,10.172c1.035,3.062,2.364,6.278,4.886,8.422c1.933,1.644,10.374,2.543,12.093,2.529
				c2.36-0.02,4.721-0.048,7.081-0.074c4.655-0.052,9.311-0.137,13.966-0.214c1.705-0.028,3.514-0.089,5.055-0.908
				c1.649-0.876,2.466-2.525,2.746-4.309c0.382-2.441,0.408-4.965,0.578-7.427c0.152-2.199,0.621-4.613,0.207-6.815
				c0.47-6.1,0.605-12.246,0.703-18.359C477.46,351.875,477.448,345.339,477.186,338.809z"/>
			<path style="fill:#252237;" d="M457.387,335.681c1.786-5.004,4.671-9.719,8.447-13.496c-0.236-0.008-0.471-0.02-0.706-0.028
				c-3.3-0.107-6.601-0.173-9.902-0.202c-1.717-0.015-3.434-0.019-5.151-0.006c-1.752,0.014-3.549-0.065-5.293,0.122
				c-0.59,0.063-9.324,0.572-12.379,11.814c-1.843,6.786-3.809,13.071-4.492,20.059c-0.414,4.234-0.449,8.493-0.207,12.74
				c-0.092,2.905-0.042,5.811,0.24,8.709c0.336,3.457,0.98,6.877,2.094,10.172c1.035,3.062,2.364,6.278,4.886,8.422
				c1.933,1.644,10.374,2.543,12.093,2.529c2.361-0.02,4.721-0.048,7.081-0.074c1.479-0.016,2.959-0.046,4.438-0.068
				c-3.276-7.256-4.75-15.347-5.118-23.28c-0.296-6.397,0.029-12.811,0.552-19.188C454.476,347.737,455.297,341.536,457.387,335.681
				z"/>
			<path style="fill:#47415C;" d="M483.795,343.134c-0.528-3.591-1.325-7.144-2.444-10.598c-0.547-1.689-1.169-3.356-1.863-4.99
				c-0.549-1.292-1.124-2.651-2.121-3.669c-5.303-5.415-10.524,6.276-12.129,9.786c-2.925,6.395-4.628,13.293-5.311,20.28
				c-0.413,4.234-0.449,8.493-0.207,12.74c-0.092,2.905-0.042,5.811,0.24,8.709c0.336,3.457,0.98,6.877,2.094,10.172
				c1.035,3.062,2.364,6.278,4.886,8.422c2.29,1.948,5.525,2.801,8.316,1.416c2.903-1.441,4.349-4.598,5.099-7.582
				c1.863-7.408,3.094-15.132,3.811-22.732C484.854,357.784,484.863,350.403,483.795,343.134z"/>
			<path style="fill:#6B6580;" d="M471.555,323.838c-3.473,2.633-5.538,6.614-6.985,10.638c-1.767,4.912-2.895,10.073-3.761,15.213
				c-1.761,10.447-2.593,21.654-0.015,32.04c0.631,2.542,1.404,5.001,2.566,7.354c1.087,2.202,2.531,4.988,4.671,6.323
				c0.468,0.292,0.948-0.273,0.719-0.719c-0.504-0.979-1.246-1.785-1.889-2.676c-0.677-0.938-1.306-1.914-1.876-2.919
				c-1.142-2.013-2.084-4.169-2.816-6.365c-1.607-4.817-1.835-9.898-1.813-14.931c0.045-10.346,1.693-20.687,4.728-30.574
				c1.437-4.682,3.446-9.145,7.269-12.353C472.915,324.396,472.151,323.386,471.555,323.838z"/>
			<path style="fill:#E3E3E3;" d="M480.996,353.839c-0.155-4.471-0.459-9.118-1.588-13.464c-0.633-2.437-2.734-9.046-6.421-6.437
				c-1.544,1.093-1.83,3.288-2.203,4.995c-0.506,2.315-0.882,4.652-1.199,7c-0.653,4.831-1.234,9.685-1.672,14.54
				c-0.486,5.392-0.706,10.845-0.129,16.239c0.2,1.872,0.517,3.752,1.211,5.503c0.398,1.487,1.02,2.969,2.197,3.946
				c1.276,1.06,3.173,1.409,4.587,0.418c1.439-1.01,1.81-2.959,2.223-4.549C480.382,372.854,481.323,363.306,480.996,353.839z"/>
			<path style="fill:#ADADAD;" d="M476.528,351.521c-0.047-3.351,0.346-7.462-1.952-10.221c-1.014-1.217-2.507-1.867-3.916-1.763
				c-0.442,2.118-0.786,4.252-1.076,6.397c-0.653,4.831-1.234,9.685-1.672,14.54c-0.486,5.392-0.706,10.845-0.129,16.239
				c0.2,1.872,0.517,3.752,1.211,5.503c0.117,0.437,0.257,0.871,0.421,1.295c1.275,0.029,2.527-0.463,3.446-1.601
				c1.814-2.245,2.03-5.699,2.441-8.435C476.393,366.208,476.63,358.861,476.528,351.521z"/>
			<path style="fill:#E3E3E3;" d="M472.778,347.352c-0.279-1.171-0.942-2.224-2.096-2.683c-0.28-0.112-0.586-0.174-0.891-0.189
				c-0.045,0.308-0.089,0.617-0.132,0.925c2.378,0.076,2.173,4.762,2.191,6.496c0.034,3.205,0.089,6.409-0.005,9.613
				c-0.095,3.239-0.283,6.483-0.749,9.692c-0.182,1.258-0.409,2.672-1.243,3.684c-0.625,0.759-1.355,0.968-2.149,0.932
				c0.027,0.297,0.047,0.594,0.079,0.891c0.026,0.242,0.061,0.484,0.091,0.726c1.267-0.1,2.632-0.991,3.283-1.927
				c1.587-2.283,1.523-5.667,1.774-8.322c0.32-3.387,0.453-6.785,0.451-10.186c-0.001-1.769-0.047-3.531-0.152-5.298
				C473.146,350.27,473.113,348.758,472.778,347.352z"/>
			<path style="fill:#FFE699;" d="M469.413,348.787c-0.06-0.041-0.127-0.061-0.19-0.096c-0.505,3.919-0.956,7.85-1.31,11.783
				c-0.371,4.118-0.584,8.272-0.408,12.408c0.728-0.146,1.398-0.683,1.736-1.371c0.302-0.616,0.363-1.314,0.407-1.989
				c0.072-1.092,0.122-2.186,0.181-3.278c0.227-4.23,0.512-8.48,0.607-12.715C470.47,352.036,470.871,349.795,469.413,348.787z"/>
		</g>
		<g>
			<path style="fill:#E3E3E3;" d="M646.849,326.293c-32.512-2.946-65.049-5.478-97.632-7.525c-4.465-0.281-8.929-0.559-13.395-0.821
				c-2.315-0.136-4.63-0.289-6.947-0.392c-1.993-0.089-4.01-0.241-6.008-0.172c0-0.001,0-0.002-0.001-0.004
				c-0.178-0.738-1.266-0.705-1.461,0c-0.027,0.095-0.044,0.193-0.067,0.289c-0.493,0.392-0.646,1.149-0.25,1.59
				c-0.122,1.422-0.038,2.889-0.061,4.294l-0.101,5.972c-0.071,4.23-0.143,8.461-0.214,12.691c-0.07,4.147-0.141,8.295-0.208,12.442
				c-0.034,2.074-0.056,4.147-0.069,6.221c-0.007,0.995-0.003,1.991,0.016,2.986c0.013,0.707-0.058,1.453,0.146,2.119
				c-0.031,0.186,0.003,0.381,0.154,0.501c0.036,0.028,0.077,0.046,0.114,0.072c0.007,0.011,0.012,0.023,0.019,0.033
				c0.111,0.161,0.268,0.229,0.424,0.219c0.418,0.189,0.878,0.303,1.317,0.421c0.641,0.171,1.289,0.336,1.944,0.44
				c1.35,0.214,2.71,0.363,4.075,0.439c0.083,0.005,0.158-0.023,0.235-0.043c0.086,0.047,0.18,0.081,0.283,0.092
				c3.616,0.392,7.32,0.08,10.948-0.029c3.65-0.109,7.299-0.241,10.948-0.364c7.133-0.24,14.266-0.467,21.399-0.694
				c14.432-0.459,28.864-0.929,43.296-1.401c8.129-0.266,16.257-0.554,24.385-0.863c0.666-0.025,0.977-0.576,0.946-1.091
				c0.058-0.13,0.092-0.279,0.086-0.458c-0.226-6.096,0.124-12.16,1.356-18.144c0.592-2.878,1.357-5.719,2.296-8.504
				c0.481-1.428,1.007-2.84,1.579-4.234c0.527-1.285,1.604-2.803,1.576-4.208c-0.001-0.021-0.008-0.037-0.009-0.057
				C648.223,327.4,647.847,326.383,646.849,326.293z"/>
			<path style="fill:#ADADAD;" d="M638.586,355.472c-7.142,0.11-14.343-0.05-21.478-0.354c-6.972-0.298-14.001-0.085-20.98-0.097
				c-14.151-0.025-28.307,0.077-42.458,0.259c-3.996,0.051-7.992,0.106-11.987,0.186c-3.268,0.065-6.695-0.118-9.976,0.248
				c0.001-2.326,0.046-4.653,0.18-6.979c0.434-7.518,1.779-14.976,4.588-21.987c1.183-2.952,2.657-5.828,4.427-8.49
				c-1.694-0.103-3.387-0.212-5.081-0.311c-2.315-0.136-4.63-0.289-6.947-0.392c-1.993-0.089-4.01-0.241-6.008-0.172
				c0-0.001,0-0.002-0.001-0.004c-0.178-0.738-1.266-0.705-1.461,0c-0.027,0.095-0.044,0.193-0.067,0.289
				c-0.493,0.392-0.646,1.149-0.25,1.59c-0.122,1.422-0.038,2.889-0.061,4.294l-0.101,5.972c-0.071,4.23-0.143,8.461-0.214,12.691
				c-0.07,4.147-0.141,8.295-0.208,12.442c-0.034,2.074-0.056,4.147-0.069,6.221c-0.007,0.995-0.003,1.991,0.016,2.986
				c0.013,0.707-0.058,1.453,0.146,2.119c-0.031,0.186,0.003,0.381,0.154,0.501c0.036,0.028,0.077,0.046,0.114,0.072
				c0.007,0.011,0.012,0.023,0.019,0.033c0.111,0.161,0.268,0.229,0.424,0.219c0.418,0.189,0.878,0.303,1.317,0.421
				c0.641,0.171,1.289,0.336,1.944,0.44c1.35,0.214,2.71,0.363,4.075,0.439c0.083,0.005,0.158-0.023,0.235-0.043
				c0.086,0.047,0.18,0.081,0.283,0.092c0.916,0.099,1.838,0.153,2.763,0.177c-0.06-3.604-0.177-7.208-0.209-10.812
				c2.885,0.19,5.848-0.055,8.718-0.098c3.579-0.054,7.159-0.114,10.738-0.168c6.993-0.105,13.985-0.221,20.978-0.271
				c14.153-0.1,28.306-0.102,42.458-0.045c7.987,0.032,15.988-0.258,23.976,0.079C639.578,357.061,639.585,355.457,638.586,355.472z
				"/>
		</g>
		<g>
			<path style="fill:#EDA68E;" d="M703.801,222.913c-0.03-4.997-0.071-9.994-0.121-14.991c-0.051-5.058,0.133-10.204-0.37-15.24
				c-0.037-0.367-0.224-0.613-0.461-0.762c-0.113-0.333-0.35-0.631-0.743-0.796c-21.024-8.823-42.423-16.869-63.831-24.709
				c-21.424-7.845-42.962-15.355-64.635-22.483c-6.015-1.978-12.039-3.929-18.072-5.852c-4.727-1.507-9.463-3.031-14.253-4.339
				c-0.054-0.304-0.235-0.576-0.591-0.73c-4.579-1.977-9.367-3.551-14.045-5.283c-4.746-1.758-9.489-3.524-14.233-5.289
				c-9.483-3.528-18.944-7.131-28.49-10.488c-2.736-0.962-5.472-1.924-8.204-2.9c-1.326-0.474-2.652-0.951-3.986-1.402
				c-1.294-0.438-2.587-0.997-3.958-1.094c-0.294-0.021-0.452,0.164-0.487,0.386c-0.654,0.054-1.305,0.505-1.39,1.34
				c-0.872,8.63-1.292,17.32-1.751,25.981c-0.458,8.664-0.856,17.332-1.057,26.006c-0.101,4.336-0.122,8.665,0.022,12.996
				c-0.917,17.852-1.443,35.734-1.943,53.601c-0.522,18.635-0.903,37.274-1.121,55.914c-0.123,10.538-0.572,21.192,0.311,31.703
				c-0.098,0.523,0.193,1.15,0.886,1.2c16.39,1.182,32.816,1.932,49.215,2.984c16.235,1.041,32.464,2.176,48.685,3.413
				c9.104,0.695,18.206,1.412,27.306,2.155c0.379,0.031,0.65-0.11,0.826-0.327c5.077,0.392,10.164,0.69,15.244,1.017
				c7.96,0.512,15.921,1.002,23.882,1.501c15.922,0.997,31.843,2.004,47.763,3.023c8.983,0.575,17.982,0.981,26.96,1.594
				c0.679,0.394,1.788,0.091,1.808-0.943c0.349-17.819,0.695-35.641,0.814-53.464C703.901,258.726,703.909,240.819,703.801,222.913z
				"/>
			<path style="fill:#D17658;" d="M701.086,325.616c-3.8-0.213-7.581-0.807-11.368-1.201c-3.79-0.393-7.58-0.781-11.372-1.164
				c-3.892-0.393-7.786-0.782-11.681-1.162c0.547-9.024,0.447-18.119,0.618-27.157c0.171-9.059,0.322-18.118,0.481-27.178
				c0.321-18.201,0.639-36.403,0.957-54.605c0.09-5.153,0.179-10.306,0.271-15.459c0.093-5.15,0.024-10.327,0.471-15.459
				c0.103-1.185-1.922-1.208-1.859,0c0.239,4.565,0.039,9.144-0.038,13.714c-0.078,4.571-0.157,9.142-0.237,13.713
				c-0.158,9.059-0.316,18.118-0.474,27.178c-0.318,18.201-0.631,36.403-0.945,54.605c-0.089,5.153-0.167,10.306-0.25,15.459
				c-0.081,5.021-0.259,10.059-0.138,15.08c-3.144-0.305-6.288-0.607-9.433-0.892c-15.017-1.361-30.035-2.702-45.046-4.122
				c-0.042-0.004-0.085-0.007-0.127-0.011c-0.15-9.972-0.608-19.936-0.764-29.908c-0.157-10.097-0.274-20.2-0.16-30.298
				c0.227-20.114,0.948-40.227,2.154-60.306c0.68-11.321,1.595-22.629,2.549-33.93c0.088-1.044-1.531-1.033-1.625,0
				c-1.834,20.109-2.998,40.295-3.76,60.472c-0.759,20.092-1.059,40.233-0.841,60.338c0.121,11.159,0.192,22.354,0.893,33.495
				c-14.29-1.324-28.611-2.314-42.913-3.495c-7.768-0.641-15.54-1.227-23.315-1.775c0.053-0.122,0.091-0.258,0.095-0.416
				c0.644-22.055,0.896-44.116,1.691-66.168c0.794-22.047,1.759-44.086,2.829-66.121c0.297-6.13,0.637-12.257,1.029-18.382
				c0.402-6.284,0.646-12.602,1.212-18.872c0.111-1.229-1.882-1.255-1.938,0c-0.245,5.548-0.754,11.092-1.083,16.637
				c-0.325,5.465-0.657,10.93-0.995,16.394c-0.681,11.015-1.339,22.026-1.851,33.05c-1.023,22.041-1.819,44.088-2.399,66.145
				c-0.327,12.435-0.67,24.877-0.652,37.317c0,0.106,0.033,0.189,0.056,0.279c-6.6-0.459-13.202-0.895-19.805-1.306
				c-8.433-0.524-16.867-1.027-25.304-1.473c-4.135-0.218-8.271-0.427-12.407-0.624c-4.296-0.204-8.605-0.521-12.906-0.456
				c-1.266,0.019-1.201,1.785,0,1.922c7.556,0.858,15.24,0.99,22.832,1.427c7.443,0.429,14.886,0.865,22.329,1.311
				c14.881,0.892,29.757,1.87,44.634,2.83c15.042,0.971,30.068,2.14,45.094,3.336c7.428,0.592,14.861,1.068,22.284,1.735
				c7.426,0.667,14.848,1.419,22.273,2.106c8.414,0.779,16.824,1.625,25.229,2.499c4.12,0.428,8.241,0.841,12.361,1.271
				c4.36,0.454,8.782,0.692,13.109,1.377C702.126,327.567,702.38,325.688,701.086,325.616z"/>
			<path style="fill:#D17658;" d="M468.001,106.511c-19.244-0.327-38.487-0.685-57.732-0.967c-2.654-0.039-5.308-0.089-7.963-0.081
				c-2.481,0.007-5.459-0.434-7.745,0.695c-0.372,0.184-0.351,0.769,0,0.958c0.132,0.071,0.271,0.122,0.407,0.182
				c-0.071,0.189-0.106,0.407-0.09,0.658c1.653,26.23,2.987,52.48,3.883,78.747c0.897,26.268,1.396,52.549,1.464,78.832
				c0.019,7.296,0.01,14.592-0.029,21.888c-0.019,3.648-0.056,7.296-0.056,10.944c0.001,3.81-0.14,7.645,0.2,11.441
				c0.05,0.562,0.351,0.911,0.722,1.075c-0.191,0.61,0.012,1.324,0.8,1.489c4.64,0.973,9.467,1.132,14.198,1.46
				c4.874,0.338,9.753,0.615,14.633,0.855c9.589,0.471,19.194,0.786,28.795,0.844c0.837,0.297,2.013-0.143,2.091-1.315
				c1.794-26.824,3.254-53.669,4.441-80.527c1.18-26.692,2.08-53.392,2.717-80.103c0.178-7.465,0.338-14.931,0.476-22.397
				C469.354,123.648,469.161,106.531,468.001,106.511z"/>
			<path style="fill:#78281C;" d="M459.569,112.523c-7.131-0.038-14.271,0.174-21.401,0.277l-10.451,0.15
				c-3.468,0.05-7.225-0.237-10.622,0.523c-0.601,0.135-0.621,1.114,0,1.235c3.338,0.655,6.984,0.293,10.373,0.254l10.7-0.126
				c6.775-0.08,13.561-0.066,20.334-0.257c-0.238,24.991-0.402,49.981-0.936,74.968c-0.533,24.917-1.325,49.825-2.378,74.725
				c-0.295,6.972-0.609,13.943-0.941,20.913c-0.334,6.992-0.854,13.999-0.931,21c-0.055-0.01-0.1-0.033-0.161-0.032
				c-17.666,0.039-35.402-0.444-53.033-1.602c0.003,0.45,0.015,0.899,0.025,1.348c8.787,0.665,17.554,1.294,26.364,1.596
				c8.878,0.305,17.76,0.442,26.643,0.423c0.444-0.001,0.709-0.273,0.806-0.602c0.393,0.03,0.826-0.212,0.877-0.726
				c0.615-6.282,0.797-12.613,1.102-18.916c0.301-6.223,0.587-12.447,0.858-18.672c0.545-12.532,1.012-25.067,1.446-37.604
				c0.861-24.908,1.539-49.823,1.931-74.743c0.222-14.12,0.398-28.243,0.361-42.365c0-0.135-0.034-0.247-0.073-0.355
				C460.701,113.341,460.41,112.528,459.569,112.523z"/>
		</g>
		<g>
			<g>
				<path style="fill:#E3E3E3;" d="M454.067,91.936c-0.011-1.223,0.02-2.437-0.269-3.633c-0.043-0.177-0.145-0.307-0.276-0.394
					c-0.105-0.321-0.374-0.586-0.807-0.6c-7.073-0.228-14.173,2.361-16.948,9.349c-1.343,3.38-1.567,7.106-1.473,10.705
					c0.12,4.593,0.444,9.073-0.037,13.659c-0.021,0.197,0.045,0.348,0.154,0.456c0.053,0.519,0.4,1.005,1.073,1.01
					c2.938,0.02,5.875,0.025,8.812,0.104c0.496,0.013,1.021-0.373,1.134-0.864c1.197-5.189-0.288-10.405,0.08-15.634
					c0.166-2.353,0.801-4.782,2.338-6.627c0.707-0.849,1.572-1.552,2.568-2.034c0.896-0.434,2.101-0.415,2.877-0.986
					c0.1-0.074,0.187-0.178,0.254-0.296c0.208-0.103,0.375-0.275,0.422-0.534C454.184,94.411,454.078,93.156,454.067,91.936z"/>
				<path style="fill:#ADADAD;" d="M439.898,109.742c-1.385,0.106-2.762,0.262-4.133,0.484c-0.426,0.069-0.896,0.14-1.37,0.224
					c0.125,3.527,0.235,7.017-0.138,10.57c-0.007,0.062,0.009,0.112,0.018,0.166c0.169-0.011,0.335-0.022,0.494-0.026
					c3.597-0.11,7.235-0.38,10.848-0.372c0.637-3.713,0.045-7.439-0.124-11.173C443.628,109.568,441.762,109.599,439.898,109.742z"
					/>
			</g>
			<g>
				<path style="fill:#E3E3E3;" d="M456.408,160.76v0.52c0,5.68-0.01,11.37-0.04,17.05c-0.1,17.97-0.38,35.93-0.9,53.9
					c-0.12,4.03-0.28,8.78-0.46,13.89c-0.21,5.65-0.44,11.75-0.68,17.78c-0.82,20.25-1.75,39.81-2.06,39.96
					c-1.93,0.95-4.77,0.73-6.89,0.79c-2.43,0.07-4.87,0.03-7.29-0.08c-4.81-0.23-9.87-0.5-14.57-1.57
					c-1.06-0.25-0.99-1.84-0.11-2.14c-0.51-6.39-0.64-12.8-0.81-19.21c-0.17-6.08-0.31-12.16-0.43-18.24
					c-0.01-0.56-0.02-1.11-0.03-1.67c-0.1-5.58-0.18-11.16-0.22-16.73c-0.15-17.99-0.01-35.98,0.37-53.97
					c0.09-4.39,0.2-8.78,0.32-13.17c0.17-6.14,0.38-12.29,0.63-18.43c0.51-13.02,1.2-26.04,2.1-39.04c0.01-0.13,0.04-0.26,0.08-0.37
					c-0.17-0.29-0.15-0.67,0.2-0.85c1.93-0.94,4.78-0.72,6.89-0.78c2.43-0.07,4.87-0.04,7.3,0.08c4.8,0.22,9.86,0.49,14.56,1.57
					c0.36,0.08,0.57,0.32,0.69,0.6c0.43-0.04,0.89,0.23,0.93,0.8c0.45,6.62,0.34,13.28,0.37,19.92
					C456.387,147.84,456.397,154.29,456.408,160.76z"/>
				<path style="fill:#ADADAD;" d="M441.737,177.994c-0.09-6.4-0.217-12.8-0.376-19.201c-0.177-7.121-0.423-14.239-0.732-21.355
					c-0.275-6.334-0.552-12.662-1.167-18.968c-2.316-0.106-4.64-0.136-6.955-0.069c-2.11,0.06-4.96-0.16-6.89,0.78
					c-0.35,0.18-0.37,0.56-0.2,0.85c-0.04,0.11-0.07,0.24-0.08,0.37c-0.9,13-1.59,26.02-2.1,39.04c-0.25,6.14-0.46,12.29-0.63,18.43
					c-0.008,0.285-0.013,0.571-0.021,0.856l0,0c-0.009,0.322-0.016,0.645-0.023,0.967c-0.101,3.782-0.198,7.565-0.276,11.347
					c-0.38,17.99-0.52,35.98-0.37,53.97c0.04,5.57,0.12,11.15,0.22,16.73c0.01,0.56,0.02,1.11,0.03,1.67
					c0.12,6.08,0.26,12.16,0.43,18.24c0.17,6.41,0.3,12.82,0.81,19.21c-0.88,0.3-0.95,1.89,0.11,2.14
					c4.673,1.064,9.702,1.337,14.487,1.566c0.95-13.001,1.744-26.009,2.365-39.026c4.624,0.198,9.248,0.331,13.873,0.439
					c0.028-0.691,0.057-1.384,0.085-2.078c0.014-0.348,0.027-0.697,0.041-1.045c-4.618-0.092-9.237-0.223-13.851-0.419
					c0.411-9.037,0.737-18.079,0.962-27.127c0.45-18.103,0.515-36.201,0.292-54.3c4.859-0.166,9.719-0.332,14.578-0.499
					c0.005-0.727,0.014-1.453,0.018-2.18c0.001-0.279,0.001-0.558,0.002-0.837C451.492,177.66,446.615,177.827,441.737,177.994z"/>
			</g>
			<g>
				<path style="fill:#47415C;" d="M456.408,160.76v0.52c0,5.68-0.01,11.37-0.04,17.05c-3.94,0.08-7.91-0.11-11.83-0.16
					c-7.31-0.1-14.62-0.2-21.93-0.3c0.17-6.14,0.38-12.29,0.63-18.43c10.14-0.1,20.27,0.26,30.38,1.09c0.32,0.01,0.65,0,0.97,0.01
					C455.197,160.57,455.817,160.63,456.408,160.76z"/>
				<path style="fill:#252237;" d="M456.386,170.414c-1.647-0.015-3.293-0.03-4.94-0.033c-3.057-0.005-6.176-0.102-9.218,0.279
					c-0.001-0.099,0.001-0.196-0.007-0.305c-0.039-0.556-0.123-1.107-0.189-1.66c-0.148-1.247-0.281-2.497-0.395-3.748
					c-0.111-1.205-0.19-2.413-0.272-3.62c-0.035-0.516-0.049-1.039-0.09-1.556c-5.772-0.256-11.549-0.374-17.33-0.329
					c-0.271,0.363-0.524,0.749-0.751,1.171c-0.229,5.751-0.427,11.508-0.586,17.258c7.31,0.1,14.62,0.2,21.93,0.3
					c3.92,0.05,7.89,0.24,11.83,0.16C456.381,175.693,456.38,173.053,456.386,170.414z"/>
			</g>
			<g>
				<path style="fill:#47415C;" d="M455.007,246.12c-0.21,5.65-0.44,11.75-0.68,17.78c-3.27,0-6.54-0.14-9.79-0.19
					c-7.46-0.09-14.91-0.2-22.37-0.3c-0.01-0.56-0.02-1.11-0.03-1.67c-0.1-5.58-0.18-11.16-0.22-16.73
					c10.57-0.15,21.15,0.2,31.7,1.07c0.32,0,0.65,0,0.97,0.01C454.727,246.1,454.867,246.1,455.007,246.12z"/>
				<path style="fill:#252237;" d="M454.327,263.9c0.099-2.475,0.195-4.956,0.289-7.419c-4.216-0.107-8.433-0.218-12.646-0.375
					c-0.182-2.187-0.36-4.375-0.565-6.56c-0.091-0.969,0.016-2.645,0.091-4.214c-6.524-0.293-13.053-0.415-19.579-0.323
					c0.04,5.57,0.12,11.15,0.22,16.73c0.01,0.56,0.02,1.11,0.03,1.67c7.46,0.1,14.91,0.21,22.37,0.3
					C447.787,263.76,451.057,263.9,454.327,263.9z"/>
			</g>
		</g>
		<g>
			<path style="fill:#252237;" d="M309.274,333.179c-1.538-6.99-4.351-13.74-9.141-19.136c-4.269-4.808-10.066-8.519-16.505-9.445
				c-13.795-1.985-25.746,8.407-30.788,20.456c-2.914,6.963-3.994,14.553-4.279,22.053c-0.256,6.75-0.297,14,2.487,20.293
				c1.335,3.019,3.431,5.577,6.147,7.455c2.909,2.012,6.362,3.12,9.733,4.078c7.887,2.241,15.878,4.486,24.087,5.105
				c2.054,0.155,4.104,0.193,6.161,0.085c0.663-0.035,1.076-0.44,1.239-0.928c3.108,0.161,6.225,0.086,9.34,0.069
				c0.494-0.003,1.093-0.376,1.183-0.901c1.436-8.393,2.222-16.896,2.299-25.411C311.31,349.022,310.983,340.946,309.274,333.179z"
				/>
			<g>
				<path style="fill:#47415C;" d="M294.21,343.604c-0.159-3.957-0.314-7.913-0.553-11.867c-0.173-2.87,0.459-7.613-3.269-8.372
					c-1.555-0.317-3.235-0.24-4.814-0.313c-2.143-0.098-4.286-0.185-6.43-0.254c-4.123-0.134-8.247-0.216-12.372-0.253
					c-2.145-0.019-4.29-0.024-6.435-0.007c-2.19,0.017-4.434-0.081-6.613,0.152c-0.737,0.079-11.65,0.715-15.466,14.761
					c-2.303,8.478-4.759,16.331-5.612,25.061c-0.517,5.289-0.561,10.612-0.259,15.917c-0.115,3.629-0.052,7.26,0.3,10.881
					c0.42,4.32,1.224,8.592,2.616,12.709c1.293,3.826,2.954,7.844,6.105,10.523c2.415,2.054,12.961,3.177,15.109,3.159
					c2.949-0.025,5.898-0.06,8.847-0.092c5.816-0.065,11.633-0.171,17.449-0.267c2.131-0.035,4.391-0.112,6.316-1.134
					c2.06-1.094,3.081-3.155,3.431-5.384c0.478-3.049,0.509-6.203,0.722-9.28c0.19-2.748,0.776-5.763,0.259-8.515
					c0.588-7.622,0.755-15.3,0.878-22.937C294.552,359.928,294.538,351.763,294.21,343.604z"/>
				<path style="fill:#252237;" d="M268.022,411.078c0.8-0.221,0.827-1.344,0.223-1.697c-0.865-2.855-2.058-5.609-2.935-8.467
					c-0.892-2.909-1.647-5.859-2.252-8.841c-1.211-5.975-1.85-12.067-1.901-18.163c-0.1-12.084,2.017-24.119,6.379-35.396
					c2.113-5.461,4.844-10.655,7.588-15.821c-2.784-0.068-5.568-0.122-8.353-0.147c-2.145-0.019-4.29-0.024-6.435-0.007
					c-2.19,0.017-4.434-0.081-6.613,0.152c-0.737,0.079-11.65,0.715-15.466,14.761c-2.303,8.478-4.759,16.331-5.612,25.061
					c-0.517,5.289-0.561,10.612-0.259,15.917c-0.115,3.629-0.052,7.26,0.3,10.881c0.42,4.32,1.224,8.592,2.616,12.709
					c1.293,3.826,2.954,7.844,6.105,10.523c1.213,1.032,4.478,1.828,7.699,2.364C255.461,413.854,261.849,412.781,268.022,411.078z"
					/>
				<path style="fill:#47415C;" d="M302.467,349.008c-0.659-4.487-1.655-8.925-3.053-13.241c-0.684-2.11-1.46-4.193-2.328-6.234
					c-0.686-1.614-1.404-3.312-2.65-4.584c-6.625-6.765-13.148,7.841-15.154,12.226c-3.655,7.989-5.782,16.608-6.635,25.338
					c-0.517,5.289-0.561,10.612-0.259,15.917c-0.115,3.629-0.052,7.26,0.3,10.881c0.42,4.32,1.224,8.592,2.616,12.709
					c1.293,3.826,2.954,7.844,6.105,10.523c2.862,2.434,6.903,3.499,10.389,1.769c3.626-1.8,5.433-5.744,6.371-9.473
					c2.327-9.256,3.866-18.905,4.761-28.401C303.79,367.311,303.801,358.089,302.467,349.008z"/>
				<path style="fill:#6B6580;" d="M287.175,324.899c-4.34,3.29-6.919,8.264-8.727,13.292c-2.207,6.137-3.616,12.586-4.698,19.007
					c-2.2,13.053-3.239,27.054-0.019,40.03c0.788,3.175,1.754,6.248,3.206,9.189c1.358,2.751,3.163,6.231,5.836,7.9
					c0.585,0.365,1.185-0.341,0.898-0.898c-0.629-1.223-1.557-2.23-2.361-3.344c-0.846-1.172-1.632-2.391-2.344-3.647
					c-1.427-2.515-2.604-5.209-3.519-7.952c-2.008-6.018-2.293-12.367-2.266-18.654c0.057-12.927,2.116-25.846,5.906-38.199
					c1.795-5.85,4.306-11.425,9.082-15.433C288.874,325.596,287.92,324.334,287.175,324.899z"/>
				<path style="fill:#E3E3E3;" d="M298.97,362.383c-0.193-5.586-0.573-11.392-1.984-16.821c-0.791-3.045-3.415-11.302-8.022-8.042
					c-1.929,1.365-2.287,4.108-2.753,6.241c-0.632,2.893-1.101,5.812-1.498,8.746c-0.816,6.036-1.542,12.1-2.089,18.167
					c-0.607,6.736-0.882,13.55-0.161,20.289c0.25,2.339,0.646,4.688,1.513,6.875c0.497,1.858,1.275,3.709,2.745,4.93
					c1.594,1.325,3.964,1.761,5.73,0.522c1.798-1.262,2.262-3.698,2.777-5.683C298.203,386.14,299.379,374.211,298.97,362.383z"/>
				<path style="fill:#ADADAD;" d="M293.388,359.487c-0.058-4.187,0.432-9.323-2.439-12.77c-1.267-1.521-3.132-2.332-4.893-2.203
					c-0.552,2.646-0.982,5.313-1.344,7.992c-0.816,6.036-1.542,12.1-2.089,18.167c-0.607,6.736-0.882,13.55-0.161,20.289
					c0.25,2.339,0.646,4.688,1.513,6.875c0.146,0.546,0.321,1.089,0.525,1.618c1.592,0.036,3.157-0.579,4.305-2
					c2.267-2.805,2.536-7.121,3.049-10.538C293.219,377.836,293.515,368.657,293.388,359.487z"/>
				<path style="fill:#E3E3E3;" d="M288.702,354.278c-0.349-1.463-1.177-2.779-2.619-3.352c-0.35-0.139-0.733-0.217-1.113-0.236
					c-0.057,0.385-0.111,0.77-0.164,1.156c2.971,0.095,2.715,5.949,2.738,8.117c0.043,4.004,0.111,8.007-0.007,12.01
					c-0.119,4.047-0.354,8.1-0.936,12.109c-0.228,1.571-0.512,3.339-1.554,4.603c-0.781,0.948-1.693,1.209-2.684,1.164
					c0.034,0.371,0.059,0.742,0.099,1.113c0.032,0.303,0.076,0.605,0.114,0.908c1.583-0.125,3.289-1.238,4.102-2.408
					c1.983-2.852,1.903-7.081,2.217-10.398c0.4-4.231,0.566-8.477,0.564-12.727c-0.001-2.211-0.059-4.412-0.19-6.619
					C289.163,357.924,289.121,356.034,288.702,354.278z"/>
				<path style="fill:#FFE699;" d="M284.498,356.071c-0.075-0.051-0.159-0.076-0.237-0.12c-0.631,4.897-1.195,9.808-1.637,14.721
					c-0.463,5.145-0.729,10.335-0.51,15.503c0.91-0.182,1.747-0.853,2.169-1.713c0.378-0.769,0.453-1.642,0.509-2.485
					c0.09-1.364,0.153-2.731,0.226-4.096c0.284-5.285,0.64-10.595,0.758-15.885C285.818,360.13,286.32,357.33,284.498,356.071z"/>
			</g>
			<path style="fill:#252237;" d="M139.384,339.872c-0.612-4.487-1.537-8.925-2.836-13.241c-0.635-2.11-1.356-4.193-2.162-6.234
				c-0.637-1.614-1.304-3.312-2.462-4.584c-1.418-1.559-2.829-1.973-4.187-1.65c-1.323-0.222-2.72-0.181-4.044-0.246
				c-1.99-0.098-3.981-0.185-5.972-0.254c-3.829-0.134-7.66-0.216-11.491-0.253c-1.992-0.019-3.985-0.024-5.977-0.007
				c-2.034,0.017-4.118-0.081-6.143,0.152c-0.685,0.079-10.821,0.715-14.365,14.761c-2.139,8.478-4.42,16.331-5.212,25.061
				c-0.48,5.289-0.521,10.612-0.24,15.916c-0.107,3.629-0.049,7.26,0.278,10.881c0.39,4.32,1.137,8.592,2.43,12.709
				c1.201,3.826,2.744,7.844,5.67,10.523c2.243,2.054,12.039,3.177,14.034,3.159c2.739-0.025,5.479-0.059,8.218-0.092
				c5.402-0.065,10.805-0.171,16.207-0.267c1.183-0.021,2.408-0.061,3.585-0.305c1.589,0.279,3.231,0.092,4.76-0.725
				c3.368-1.8,5.047-5.744,5.917-9.473c2.162-9.256,3.59-18.905,4.422-28.402C140.613,358.175,140.624,348.953,139.384,339.872z"/>
			<path style="fill:#47415C;" d="M154.218,178.594c0.103-0.093,0.222-0.167,0.367-0.176c0.933-0.057,1.896,0.108,2.815,0.263
				c0.874,0.148,1.743,0.335,2.602,0.557c0.848,0.219,1.679,0.483,2.496,0.799c0.203,0.079,0.403,0.159,0.6,0.243
				c1.934-1.509,3.732-1.142,4.181-1.025c0.624,0.163,1.251,0.32,1.872,0.495c1.227,0.347,2.42,0.691,3.576,1.234
				c0.531,0.25,0.398,1.091-0.236,1.04c-1.29-0.103-2.517-0.403-3.771-0.715c-0.603-0.15-1.202-0.315-1.802-0.478
				c-0.398-0.108-0.93-0.184-1.338-0.398c-0.369,0.208-0.724,0.426-1.067,0.665c0.118,0.094,0.238,0.184,0.347,0.294
				c0.067,0.068,0.099,0.145,0.112,0.223c0.01,0.013,0.023,0.023,0.031,0.037c0.57,1.048-0.154,2.862-0.365,3.972
				c-0.289,1.512-0.586,3.022-0.897,4.53c-0.608,2.954-1.239,5.903-1.889,8.848c-0.635,2.875-1.29,5.745-1.958,8.613
				c-0.695,2.984-1.294,6.031-2.281,8.934c-0.034,0.101-0.298,1.115-0.791,1.237c-0.008,0.002-0.017,0.002-0.025,0.004
				c0.093,0.196,0.187,0.392,0.307,0.571c0.689,1.029,1.809,1.387,2.96,1.676c1.328,0.334,2.667,0.634,4.005,0.928
				c1.29,0.284,2.83,0.426,3.95,1.17c0.362,0.241,0.187,0.783-0.201,0.868c-1.445,0.314-3.146-0.255-4.559-0.554
				c-1.536-0.326-3.109-0.622-4.607-1.094c-1.286-0.405-2.339-1.145-3.035-2.31c-0.239-0.401-0.416-0.828-0.572-1.264
				c-0.101-0.013-0.203-0.026-0.302-0.037c-0.695-0.082-1.388-0.187-2.077-0.315c-1.382-0.256-2.749-0.599-4.087-1.03
				c-1.167-0.376-2.605-0.749-3.493-1.646c-0.338-0.341-0.6-0.802-0.685-1.283c-0.12-0.106-0.205-0.249-0.217-0.432
				c-0.117-1.669,0.21-3.409,0.436-5.06c0.221-1.611,0.476-3.217,0.767-4.817c0.596-3.277,1.324-6.531,2.209-9.743
				c0.897-3.255,1.906-6.482,3.093-9.644C151.258,182.259,152.219,178.943,154.218,178.594z"/>
			<g>
				<path style="fill:#C7212D;" d="M82.37,329.889c-0.431-7.213-1.045-14.391-1.146-21.622c-0.117-8.4,0.206-16.806,0.922-25.175
					c0.104-1.214-1.37-1.851-2.316-1.329c-11.139,6.144-19.812,16.139-25.411,27.469c-6.351,12.849-8.642,27.251-8.252,41.495
					c0.236,8.623,1.098,17.616,3.567,25.907c0.224,0.753,1.251,0.874,1.72,0.427c0.196-0.065,0.391-0.176,0.573-0.355
					c9.165-8.973,22.052-15.201,27.664-27.316C82.528,343.261,82.766,336.524,82.37,329.889z"/>
				<path style="fill:#781C42;" d="M58.687,370.944c-0.203-0.025-0.406-0.048-0.609-0.073c-3.348-0.417-6.701-0.91-10.057-1.377
					c0.462,2.418,1.018,4.808,1.712,7.139c0.224,0.753,1.251,0.874,1.72,0.427c0.196-0.065,0.391-0.176,0.573-0.355
					C54.097,374.677,56.362,372.792,58.687,370.944z"/>
			</g>
			<g>
				<path style="fill:#C7212D;" d="M433.387,234.36c-0.64,28.48-2.51,56.95-5.64,85.27c-0.12,1.12-1.25,1.56-2.06,1.3
					c-0.13,0.12-4.99,0.65-7.25,0.72c-2.32,0.07-4.64,0.13-6.96,0.19c-4.48,0.12-8.96,0.22-13.43,0.3
					c-16.09,0.29-32.17,0.36-48.26,0.19c-8.12-0.08-16.25-0.25-24.37-0.47c-3.98-0.1-7.96-0.22-11.94-0.37
					c-4.06-0.15-8.19-0.11-12.2-0.78c0.36-1.66-0.16-3.58-1.82-4.77c-10.06-7.16-21.48-7.92-30.84-0.68
					c-0.09,0.02-0.19,0.04-0.28,0.06c-1.56,0.32-2.45,1.4-2.77,2.66c-0.02,0.03-0.04,0.05-0.07,0.07c-0.16,0.17-0.28,0.34-0.41,0.51
					c-3.08-0.08-6.17-0.17-9.25-0.25c-17.95-0.49-35.9-1-53.85-1.49c-10.87-0.3-21.74-0.61-32.61-0.91
					c-11.06-0.32-22.13-0.63-33.2-0.91c-0.81-0.02-1.72-0.74-1.63-1.63c0.7-6.68,1.54-13.34,2.53-19.98
					c1.75-11.73,3.93-23.4,6.61-34.95c2.28-9.8,4.73-19.66,7.99-29.21c-0.04-0.12-0.05-0.25,0.01-0.4c0.46-1.16,0.91-2.32,1.37-3.49
					c0.14-0.36,0.26-0.73,0.4-1.09c0.04-0.11,0.09-0.19,0.14-0.28c0.66-1.69,1.32-3.37,1.97-5.07c1.31-3.41,2.58-6.85,3.74-10.33
					c2.26-6.78,4.36-13.61,6.6-20.41c3.87-11.78,8.24-23.6,15.08-34.03c7.34-11.22,17.49-19.94,29-26.68
					c12.31-7.21,25.7-12.77,39.07-17.68c14.29-5.26,28.94-9.5,43.82-12.71c0.69-0.15,11.1,0.27,15.86,0.22
					c4.8-0.05,9.61-0.07,14.41-0.07c17.32,0,34.64,0.26,51.95,0.79c8.62,0.27,17.23,0.6,25.84,0.99c8.68,0.4,17.41,0.66,26.06,1.44
					c0.22,0.02,0.42,0.41,0.62,1.09c1.15,3.96,1.93,17.78,2.47,24.23c0.66,7.88,1.22,15.77,1.69,23.66
					C433.477,177.68,434.037,206.04,433.387,234.36z"/>
				<path style="fill:#781C42;" d="M295.087,228.538c-0.08-0.513-0.907-0.485-1.01,0c-0.666,3.154-0.439,6.619-0.462,9.83
					c-0.024,3.397-0.086,6.792-0.181,10.188c-0.093,3.313-0.206,6.626-0.288,9.94c-0.085,3.463-0.006,6.988-0.331,10.437
					c-0.084,0.892,1.444,0.917,1.406,0c-0.14-3.378,0.118-6.809,0.213-10.188c0.095-3.396,0.16-6.792,0.244-10.188
					c0.082-3.315,0.194-6.627,0.345-9.94C295.176,235.329,295.596,231.802,295.087,228.538z"/>
				<path style="fill:#781C42;" d="M369.701,307.003c0.825-11.7,1.131-23.453,1.617-35.171c0.483-11.655,0.969-23.31,1.457-34.965
					c0.986-23.56,2.05-47.117,3.006-70.679c0.537-13.226,1.242-26.473,1.099-39.71c-0.005-0.511-0.736-0.493-0.781,0
					c-1.095,11.791-1.478,23.635-1.981,35.464c-0.496,11.654-0.95,23.31-1.42,34.965c-0.951,23.559-1.843,47.12-2.799,70.679
					c-0.532,13.119-1.293,26.26-1.444,39.39c-8.52-0.193-17.039-0.396-25.559-0.611c-4.312-0.109-8.624-0.197-12.936-0.315
					c-2.611-0.071-5.235-0.181-7.855-0.205c-4.721-8.608-10.487-16.645-17.105-23.851c-3.969-4.321-8.198-8.307-12.986-11.703
					c-0.896-0.636-1.945,0.767-1.164,1.509c0.357,0.34,0.711,0.682,1.067,1.023c-0.018,0.171-0.004,0.357,0.056,0.558
					c3.467,11.467,6.943,22.932,10.458,34.384l4.14,13.486c0,0,0.001,0,0.001,0c1.39,0.076,2.783,0.117,4.174,0.156
					c0.913,0.025,1.826,0.049,2.734,0.082c3.98,0.15,7.96,0.27,11.94,0.37c1.344,0.036,2.69,0.062,4.035,0.095
					c-1.682-4.559-3.65-9.015-5.877-13.338c1.63,0.076,3.261,0.132,4.89,0.193c3.814,0.142,7.629,0.284,11.444,0.424
					c7.627,0.279,15.26,0.435,22.89,0.608c15.427,0.349,30.857,0.511,46.287,0.679c6.534,0.071,13.068,0.115,19.602,0.15
					c0.092-0.912,0.186-1.824,0.275-2.736C409.204,307.806,389.452,307.446,369.701,307.003z"/>
				<g>
					<path style="opacity:0.45;fill:#CF5962;" d="M421.286,185.134c-11.682-0.859-23.389-1.143-35.097-0.731
						c-2.496,0.088-2.51,3.967,0,3.891c11.7-0.354,23.422-0.159,35.097,0.7C423.764,189.176,423.753,185.316,421.286,185.134z"/>
					<path style="fill:#781C42;" d="M421.286,186.425c-11.682-0.86-23.389-1.143-35.097-0.731c-2.496,0.088-2.51,3.967,0,3.891
						c11.7-0.354,23.422-0.159,35.097,0.7C423.764,190.466,423.753,186.606,421.286,186.425z"/>
				</g>
				<g>
					<path style="opacity:0.45;fill:#CF5962;" d="M421.286,254.812c-11.682-0.86-23.389-1.143-35.097-0.731
						c-2.496,0.088-2.51,3.967,0,3.891c11.7-0.354,23.422-0.159,35.097,0.7C423.764,258.853,423.753,254.993,421.286,254.812z"/>
					<path style="fill:#781C42;" d="M421.286,256.36c-11.682-0.859-23.389-1.143-35.097-0.731c-2.496,0.088-2.51,3.967,0,3.891
						c11.7-0.354,23.422-0.159,35.097,0.7C423.764,260.402,423.753,256.542,421.286,256.36z"/>
				</g>
			</g>
			<g>
				<path style="fill:#E3E3E3;" d="M446.844,378.301c-0.092-0.571-0.607-0.645-1.004-0.436c-0.145-0.058-0.313-0.087-0.507-0.077
					c-17.844,0.897-35.7,1.635-53.556,2.266c-17.859,0.631-35.727,1.052-53.596,1.29c-5.07,0.067-10.14,0.117-15.21,0.172
					c-2.493,0.027-4.988,0.04-7.481,0.09c-2.463,0.05-5.02,0.022-7.421,0.602c-0.47,0.114-0.607,0.65-0.423,1.023
					c-0.265,1.033-0.261,2.187-0.297,3.224c-0.045,1.294-0.065,2.587-0.085,3.881c-0.04,2.585-0.137,5.177-0.103,7.763
					c0.005,0.35,0.163,0.59,0.379,0.742c0.042,0.173,0.141,0.332,0.318,0.432c1.584,0.892,3.959,0.846,5.744,1.05
					c2.121,0.242,4.245,0.468,6.372,0.654c4.333,0.38,8.675,0.662,13.019,0.861c4.263,0.195,8.53,0.303,12.797,0.333
					c2.682,0.019,5.365-0.046,8.047-0.089c1.936,0.128,3.887,0.086,5.827,0.065c3.019-0.033,6.038-0.094,9.055-0.181
					c6.036-0.174,12.067-0.515,18.089-0.963c11.818-0.88,23.61-2.186,35.328-3.958c2.904-0.439,5.803-0.91,8.699-1.401
					c3.239-0.434,6.478-0.869,9.715-1.32c1.468-0.204,2.795-0.422,3.985-1.371c1.141-0.911,1.601-2.261,1.841-3.656
					C446.985,385.772,447.416,381.848,446.844,378.301z"/>
				<path style="fill:#ADADAD;" d="M425.141,392.367c-8.314,0.966-16.645,1.795-24.988,2.478
					c-16.609,1.361-33.247,2.205-49.911,2.43c-8.538,0.116-17.079-0.08-25.616,0.02c0.031-0.663,0.072-1.325,0.096-1.989
					c0.07-1.935,0.129-3.873,0.148-5.809c0.016-1.662,0.054-3.349-0.182-4.999c0.277-0.999,0.536-2.002,0.784-3.011
					c-0.833,0.009-1.667,0.019-2.5,0.028c-2.493,0.027-4.988,0.04-7.481,0.09c-2.463,0.05-5.02,0.022-7.421,0.602
					c-0.47,0.114-0.607,0.65-0.423,1.023c-0.265,1.033-0.261,2.187-0.297,3.224c-0.045,1.294-0.065,2.587-0.085,3.881
					c-0.04,2.585-0.137,5.177-0.103,7.763c0.005,0.35,0.163,0.59,0.379,0.742c0.042,0.173,0.141,0.332,0.318,0.432
					c1.584,0.892,3.959,0.846,5.744,1.05c2.121,0.242,4.245,0.468,6.372,0.654c4.333,0.38,8.675,0.662,13.019,0.861
					c4.263,0.195,8.53,0.303,12.797,0.333c2.682,0.019,5.365-0.046,8.047-0.089c1.936,0.128,3.887,0.086,5.827,0.065
					c3.019-0.033,6.038-0.094,9.055-0.181c6.036-0.174,12.067-0.515,18.089-0.963c11.818-0.88,23.61-2.186,35.328-3.958
					c2.904-0.439,5.803-0.91,8.699-1.401c3.239-0.434,6.478-0.869,9.715-1.32c1.468-0.204,2.795-0.422,3.985-1.371
					c1.046-0.834,1.516-2.039,1.773-3.307C439.294,390.783,432.184,391.548,425.141,392.367z"/>
			</g>
			<g>
				<path style="fill:#C7212D;" d="M446.554,321.919c-4.129-2.441-9.124-2.712-13.803-2.147c-0.304-0.012-0.609-0.024-0.913-0.036
					c-1.316-0.051-2.632-0.102-3.948-0.152c-0.289-0.011-0.579-0.016-0.868-0.026c-0.208-0.171-0.482-0.283-0.828-0.289
					c-15.26-0.302-30.547-0.045-45.81-0.039c-15.104,0.005-30.208,0.009-45.312,0.021c-4.315,0.003-8.631,0.025-12.946,0.055
					c-4.204,0.03-8.549-0.229-12.714,0.389c-0.176,0.026-0.308,0.114-0.419,0.223c-0.865-0.027-1.754,0.664-1.464,1.766
					c2.023,7.677,3.748,15.359,4.585,23.267c0.83,7.848,0.987,15.771,0.436,23.644c-0.318,4.543-0.85,9.063-1.679,13.542
					c-0.181,0.976,0.42,1.976,1.501,1.971c17.294-0.087,34.599-0.619,51.885-1.12c17.294-0.502,34.578-1.171,51.864-1.881
					c9.822-0.403,19.614-0.956,29.41-1.77c0.114-0.009,0.203-0.052,0.3-0.085c0.564,0.067,1.157-0.195,1.314-0.877
					c0.582-2.52,0.693-5.207,1-7.774c0.316-2.647,0.632-5.293,0.962-7.938c0.649-5.21,1.34-10.414,1.957-15.628
					c0.313-2.646,0.621-5.292,0.93-7.938c0.268-2.297,0.615-4.616,0.525-6.936C452.351,327.811,450.327,324.15,446.554,321.919z"/>
				<path style="fill:#781C42;" d="M438.768,341.605c-0.112-0.193-0.296-0.346-0.573-0.371c-5.471-0.499-11.073-0.768-16.557-0.313
					c0.024-2.704,0.022-5.408-0.03-8.113c-0.017-0.864-1.361-0.866-1.344,0c0.286,14.577-2.769,46.416-2.831,46.804
					c-0.076,0.477-0.126,0.96-0.175,1.443c6.273-0.265,12.535-0.598,18.794-1.018c0.032-0.259,0.064-0.518,0.095-0.777
					c0.132-1.075,0.266-2.205,0.081-3.282c-0.042-0.243-0.24-0.403-0.47-0.473c-0.122-0.18-0.315-0.312-0.598-0.316
					c-2.753-0.034-5.505-0.048-8.258-0.072c-1.349-0.012-2.699-0.031-4.048-0.028c-1.069,0.002-2.233-0.098-3.321,0.035
					c0.655-7.594,1.729-20.509,1.946-26.997c0.129,0.083,0.276,0.148,0.453,0.171c2.773,0.359,5.58,0.434,8.372,0.493
					c1.373,0.029,2.743,0.114,4.116,0.117c1.302,0.002,2.715,0.094,3.918-0.48c0.136-0.053,0.26-0.142,0.348-0.274
					c0.292-0.439,0.303-1.106,0.373-1.616c0.072-0.526,0.127-1.049,0.151-1.58c0.023-0.496,0.033-0.992,0.029-1.488
					c-0.004-0.549-0.005-1.182-0.274-1.674C438.921,341.714,438.848,341.653,438.768,341.605z"/>
				<path style="fill:#781C42;" d="M327.877,383.906c0,0.003,0,0.006,0,0.01c0.007,0,0.013,0,0.019,0
					c4.629-0.083,9.258-0.187,13.887-0.303c0.076-0.002,0.153-0.004,0.229-0.006c4.585-0.115,9.169-0.242,13.753-0.374
					c0,0,0,0.001,0,0.001c0.61-0.017,1.22-0.035,1.83-0.053c0-0.002,0-0.004,0-0.005c0.03-0.306-0.021-6.507-0.031-6.536
					c0.015-0.07,0.026-0.14,0.041-0.21c0.129-0.585-0.268-1.181-0.899-1.18c-4.586,0.01-9.17,0.042-13.755,0.143
					c-2.292,0.051-4.584,0.111-6.875,0.208c-0.859,0.036-1.762,0.033-2.667,0.056c0.204-9.719,0.049-19.454-0.596-29.128
					c2.079,0.07,4.164,0.092,6.235,0.161c3.213,0.107,6.424,0.189,9.639,0.243c0.84,0.014,1.799,0.074,2.749,0.036
					c0.87,0.242,1.808,0.156,2.705,0.154c0.179-0.001,0.367,0.003,0.557,0.002c0.467,0.1,0.962,0.085,1.398-0.095
					c0.101-0.028,0.188-0.079,0.262-0.153c0.031-0.04,0.062-0.08,0.093-0.12c0.081-0.126,0.156-4.943,0.127-5.873
					c-0.013-0.411-0.34-0.77-0.766-0.766c-0.322,0.003-0.991,0.029-1.005,0.03c-0.632-0.183-1.301-0.153-2.042-0.164
					c-1.151-0.017-2.302-0.028-3.453-0.033c-2.466-0.009-4.933,0.007-7.399,0.064c-3.189,0.073-6.386,0.146-9.563,0.412
					c-0.036-0.407-0.063-0.815-0.101-1.221c-0.875-9.34-3.668-19.378-3.882-19.925c-2.08,0.01-4.16,0.012-6.24,0.027
					c-4.204,0.03-8.549-0.229-12.714,0.389c-0.176,0.026-0.308,0.114-0.419,0.223c-0.865-0.027-1.754,0.664-1.464,1.766
					c2.023,7.677,3.748,15.359,4.585,23.267c0.34,3.212,0.56,6.437,0.672,9.666c0,0,0,0,0,0c0,0.012,0.001,0.023,0.001,0.035
					c0.114,3.325,0.105,6.654-0.027,9.978v0c0.038,3.476-0.014,6.953-0.184,10.427c-0.146,2.998-0.422,5.979-0.718,8.958
					c0.069,0.024,0.141,0.043,0.215,0.059c0.096,0.018,0.194,0.034,0.299,0.034c3.158-0.016,6.316-0.06,9.475-0.103
					C323.857,383.975,325.867,383.943,327.877,383.906z"/>
				<path style="opacity:0.45;fill:#CF5962;" d="M438.634,326.144c4.144,0.247,8.381,0.76,12.567,0.738
					c-0.998-2.011-2.539-3.716-4.648-4.963c-4.129-2.441-9.124-2.712-13.803-2.147c-0.304-0.012-0.609-0.024-0.913-0.036
					c-1.316-0.051-2.632-0.102-3.948-0.152c-0.289-0.011-0.579-0.016-0.868-0.026c-0.208-0.171-0.482-0.283-0.828-0.289
					c-15.26-0.302-30.547-0.045-45.81-0.039c-15.104,0.005-30.208,0.009-45.312,0.021c-4.315,0.003-8.631,0.025-12.946,0.055
					c-4.204,0.03-8.549-0.229-12.714,0.389c-0.176,0.026-0.308,0.114-0.419,0.223c-0.865-0.027-1.754,0.664-1.464,1.766
					c0.3,1.14,0.591,2.281,0.877,3.423c10.262-0.207,20.521-0.627,30.784-0.835c11.024-0.223,22.051-0.322,33.077-0.26
					C394.402,324.135,416.539,324.829,438.634,326.144z"/>
				<path style="fill:#781C42;" d="M365.915,381.44c-0.037,0.5-0.068,0.999-0.098,1.499c0.398-0.012,0.795-0.025,1.193-0.037
					c0.034-0.46,0.072-0.92,0.099-1.382c0.042-0.691,0.057-1.379,0.074-2.072c0.007-0.305,0.012-0.584-0.021-0.876
					c0.47-8.365,0.762-16.743,1.109-25.114l0.515-12.4c0.178-4.296,0.163-8.609,0.515-12.896c0.065-0.794-1.25-0.814-1.25,0
					c0,4.219-0.363,8.433-0.534,12.648c-0.171,4.216-0.343,8.432-0.514,12.648c-0.343,8.43-0.743,16.861-0.96,25.295
					c-0.004,0.142,0.044,0.248,0.111,0.333c-0.01,0.094-0.019,0.187-0.029,0.282C366.051,380.06,365.967,380.747,365.915,381.44z"/>
			</g>
			<path style="fill:#C7212D;" d="M294.397,224.7c-0.27,5.89-0.8,11.76-1.27,17.64c-1.66,20.78-3.36,41.56-5.04,62.34
				c-0.08,1-0.94,1.48-1.72,1.44c-0.11,0.18-0.26,0.33-0.43,0.44c-1.27,0.78-3.14,0.93-4.59,1.32c-1.5,0.39-3,0.82-4.5,1.26
				c-2.93,0.87-5.82,1.89-8.65,3.04c-4.27,1.73-8.4,3.78-12.36,6.13c-15.23,8.99-27.86,22.23-35.89,38.08
				c-0.7,1.38-22.97-0.28-32.99-0.37c-18.24-0.17-36.47-0.37-54.71-0.54c-9.08-0.09-18.15-0.17-27.23-0.28
				c-4.58-0.05-9.16-0.1-13.74-0.15c-4.56-0.06-9.2,0.1-13.74-0.4c-0.5-0.05-0.86-0.28-1.09-0.59c-0.38-0.08-0.72-0.36-0.78-0.87
				c-0.09-0.86-0.17-1.71-0.24-2.57c-0.53-6.41-0.47-12.92-0.52-19.34c-0.12-12.78-0.02-25.56,0.3-38.34
				c0.15-6.3,0.36-12.61,0.61-18.91c0.13-3.23,0.26-6.47,0.43-9.7c0.16-3.17,0.18-6.39,0.63-9.53c0.05-0.32,0.11-2.05,0.74-2.46
				c2.6-1.68,5.53-2.93,8.3-4.3c2.72-1.34,5.46-2.65,8.21-3.95c19.6-9.2,41.05-17.78,61.39-25.19h0.05
				c1.15-0.1,19.78,0.42,29.61,0.66c17.89,0.46,35.78,0.93,53.67,1.39c17.8,0.46,35.63,0.77,53.42,1.54
				c0.55,0.02,0.94,0.29,1.17,0.65c0.07,0.11,0.13,0.23,0.17,0.36C294.068,223.64,294.427,224.03,294.397,224.7z"/>
			<g>
				<path style="opacity:0.45;fill:#CF5962;" d="M427.617,101.52c-13.08,3.4-26.12,6.97-38.86,11.47
					c-24.19,8.55-47.78,20.91-64.87,40.49c-16.67,19.1-25.4,43.47-28.73,68.33c-0.12,0.87-1.03,1.2-1.64,0.96
					c-0.01,0.13-0.03,0.25-0.08,0.37c-0.13,0.33-0.42,0.6-0.89,0.69c-8.86,1.79-17.69,3.77-26.46,5.96
					c-15.49,3.86-30.84,8.28-45.97,13.39c-7.6,2.56-15.15,5.28-22.64,8.14c-3.74,1.43-7.48,2.89-11.2,4.39
					c-3.46,1.4-6.91,2.99-10.45,4.17c-0.64,5.6-1.27,11.2-1.91,16.79c-1.19,10.41-2.39,20.81-3.58,31.22
					c-0.31,2.67-0.63,5.35-0.96,8.02c-0.3,2.53-0.61,5.05-0.91,7.58c-0.6,5.08-0.93,10.34-2.29,15.27c-0.08,0.3-0.31,0.42-0.54,0.43
					c-0.08,0.87-0.12,1.73-0.13,2.6v0.28c1.24-0.02,2.02,1.89,0.74,2.79c-6.5,4.59-14.34,6.44-22.1,7.49
					c-8.68,1.18-17.49,1.69-26.24,1.91c-8.23,0.21-16.46,0.06-24.67-0.47c-5.83-0.38-12.45-0.46-17.81-3.17
					c-0.53-6.41-0.47-12.92-0.52-19.34c-0.12-12.78-0.02-25.56,0.3-38.34c0.15-6.3,0.36-12.61,0.61-18.91
					c0.13-3.23,0.26-6.47,0.43-9.7c0.16-3.17,0.18-6.39,0.63-9.53c0.05-0.32,0.11-2.05,0.74-2.46c2.6-1.68,5.53-2.93,8.3-4.3
					c2.72-1.34,5.46-2.65,8.21-3.95c19.6-9.2,41.05-17.78,61.39-25.19h0.05c1.31-3.41,2.58-6.85,3.74-10.33
					c2.26-6.78,4.36-13.61,6.6-20.41c3.87-11.78,8.24-23.6,15.08-34.03c7.34-11.22,17.49-19.94,29-26.68
					c12.31-7.21,25.7-12.77,39.07-17.68c14.29-5.26,28.94-9.5,43.82-12.71c0.69-0.15,11.1,0.27,15.86,0.22
					c4.8-0.05,9.61-0.07,14.41-0.07c17.32,0,34.64,0.26,51.95,0.79c8.62,0.27,17.23,0.6,25.84,0.99c8.68,0.4,17.41,0.66,26.06,1.44
					C427.217,100.45,427.417,100.84,427.617,101.52z"/>
				<path style="fill:#781C42;" d="M303.874,150.959c-27.066-0.884-54.14-1.506-81.21-2.227c-3.82-0.102-7.639-0.202-11.459-0.284
					c-3.816-0.083-7.648-0.292-11.459-0.077c-1.093,0.062-1.056,1.557,0,1.672c3.471,0.378,6.972,0.385,10.463,0.493
					c3.321,0.102,6.643,0.197,9.965,0.283c6.809,0.176,13.618,0.351,20.427,0.527c13.452,0.347,26.904,0.701,40.356,1.053
					c7.639,0.2,15.278,0.364,22.918,0.515C305.133,152.937,305.129,151,303.874,150.959z"/>
				<path style="fill:#E3626B;" d="M289.663,223.379c-3.636,1.116-7.435,1.84-11.136,2.722c-3.721,0.886-7.441,1.755-11.146,2.707
					c-7.251,1.863-14.487,3.782-21.676,5.871c-14.526,4.221-28.926,8.907-43.169,14.002c-7.873,2.817-15.689,5.731-23.326,9.136
					c-0.715,0.319-0.206,1.532,0.536,1.271c14.265-5.024,28.348-10.538,42.71-15.305c14.202-4.714,28.576-8.988,43.031-12.856
					c4-1.07,8.009-2.108,12.017-3.144c4.131-1.068,8.359-2.247,12.578-2.882C291.065,224.753,290.659,223.073,289.663,223.379z"/>
				<path style="fill:#E3626B;" d="M420.096,103.982c-16.12,2.089-31.805,6.655-46.556,13.48
					c-14.624,6.767-28.258,15.703-40.214,26.511c-3.406,3.079-6.691,6.297-9.788,9.687c-3.05,3.339-6.009,6.813-8.337,10.699
					c-0.271,0.452,0.351,0.925,0.724,0.559c5.653-5.556,10.765-11.624,16.596-17.023c5.844-5.411,12.098-10.39,18.667-14.893
					c13.125-8.998,27.56-16.055,42.742-20.827c8.537-2.684,17.294-4.671,26.167-5.849
					C421.568,106.13,421.592,103.788,420.096,103.982z"/>
			</g>
			<g>
				<path style="fill:#E3E3E3;" d="M79.689,252.732c-0.784-0.025-1.569-0.034-2.353-0.051c-0.364,0.653-0.418,1.856-0.459,2.119
					c-0.45,3.14-0.47,6.36-0.63,9.53c-0.17,3.23-0.3,6.47-0.43,9.7c-0.25,6.3-0.46,12.61-0.61,18.91
					c-0.32,12.78-0.42,25.56-0.3,38.34c0.05,6.42-0.01,12.93,0.52,19.34c5.36,2.71,11.98,2.79,17.81,3.17
					c8.21,0.53,16.44,0.68,24.67,0.47c8.75-0.22,17.56-0.73,26.24-1.91c7.76-1.05,15.6-2.9,22.1-7.49c1.28-0.9,0.5-2.81-0.74-2.79
					v-0.28c0.01-0.87,0.05-1.73,0.13-2.6c0.23-0.01,0.46-0.13,0.54-0.43c1.36-4.93,1.69-10.19,2.29-15.27
					c0.3-2.53,0.61-5.05,0.91-7.58c0.33-2.67,0.65-5.35,0.96-8.02c1.19-10.41,2.39-20.81,3.58-31.22
					c0.634-5.536,1.258-11.083,1.892-16.629C175.624,259.828,108.518,253.633,79.689,252.732z"/>
				<path style="fill:#47415C;" d="M173.158,261.554c-0.054-0.015-0.098-0.044-0.158-0.051c-24.334-2.895-48.846-4.714-73.301-6.221
					c-3.474-0.214-6.948-0.416-10.423-0.606c-1.655-0.091-3.31-0.173-4.965-0.254c-1.463-0.071-2.949-0.192-4.404-0.02
					c-0.314-0.379-1.122-0.247-1.169,0.407c-1.483,20.678-2.241,41.411-2.316,62.142c-0.021,5.865-0.002,11.731,0.165,17.593
					c0.006,0.225,0.129,0.369,0.284,0.446c0.117,0.137,0.296,0.231,0.541,0.237c5.698,0.142,11.422-0.186,17.123-0.235
					c5.709-0.048,11.418-0.024,17.126,0.072c11.251,0.19,22.497,0.658,33.725,1.404c3.137,0.208,6.273,0.435,9.407,0.675
					c3.292,0.252,6.594,0.697,9.891,0.83c0.697,0.028,2.56-20.256,3.587-29.709c1.065-9.809,2.326-19.596,3.555-29.385
					c0.668-5.318,1.329-10.637,2.025-15.952c0.049-0.132,0.064-0.277,0.055-0.426c0.006-0.047,0.012-0.093,0.018-0.14
					C173.986,261.885,173.582,261.598,173.158,261.554z"/>
				<path style="fill:#252237;" d="M173.158,261.554c-0.054-0.015-0.098-0.044-0.158-0.051c-15.828-1.883-31.731-3.307-47.645-4.49
					c-0.323,2.831-0.586,5.671-0.84,8.51c-9.804-0.721-19.617-1.328-29.433-1.788c-4.294-0.201-8.589-0.378-12.884-0.534
					c-0.466-0.017-0.933-0.032-1.399-0.048c0.163-2.496,0.335-4.991,0.515-7.486c1.267,0.205,2.629,0.224,3.816,0.31
					c1.814,0.132,3.628,0.263,5.442,0.395c3.71,0.268,7.422,0.514,11.132,0.77c3.628,0.25,7.257,0.5,10.885,0.751
					c1.814,0.126,3.628,0.259,5.443,0.375c1.903,0.122,3.927,0.44,5.816,0.181c0.792-0.109,1.07-0.806,0.971-1.473
					c-8.374-0.62-16.75-1.177-25.12-1.693c-3.474-0.214-6.948-0.416-10.423-0.606c-1.655-0.091-3.31-0.173-4.965-0.254
					c-1.463-0.071-2.949-0.192-4.404-0.02c-0.314-0.379-1.122-0.247-1.169,0.407c-0.197,2.75-0.38,5.502-0.551,8.253l0,0
					c-0.051,0.824-0.096,1.648-0.145,2.473l0,0c-0.188,3.155-0.359,6.311-0.514,9.468l0,0c-0.025,0.509-0.051,1.018-0.076,1.527
					c-0.164,3.473-0.31,6.947-0.435,10.421h0c-0.015,0.411-0.027,0.822-0.04,1.233c-0.118,3.415-0.216,6.831-0.296,10.248l0,0
					c-0.02,0.842-0.044,1.684-0.062,2.526l0,0c-0.079,3.815-0.129,7.63-0.161,11.445l0,0c-0.004,0.422-0.006,0.843-0.01,1.265
					c-0.008,1.094-0.021,2.188-0.025,3.282c-0.021,5.865-0.002,11.731,0.165,17.593c0.006,0.225,0.129,0.369,0.284,0.446
					c0.117,0.137,0.296,0.231,0.541,0.237c0.552,0.014,1.104,0.006,1.657,0.012c0.022-1.628-0.023-3.257-0.039-4.891
					c-0.011-1.148-0.015-2.297-0.024-3.445c2.794,0.137,5.588,0.268,8.383,0.396c7.148,0.326,14.296,0.645,21.444,0.967
					c3.716,0.168,7.433,0.335,11.149,0.502c-0.117,2.158-0.227,4.319-0.293,6.481c1.057,0.03,2.114,0.072,3.171,0.107
					c0.109-2.147,0.198-4.297,0.303-6.445c9.519,0.427,19.038,0.853,28.558,1.287c4.721,0.215,9.442,0.432,14.163,0.648
					c0.086-0.727,0.174-1.49,0.263-2.282c-14.29-0.624-28.58-1.257-42.87-1.889c0.164-2.994,0.326-5.987,0.496-8.981
					c9.647,0.559,19.295,1.121,28.943,1.665c3.989,0.225,7.978,0.449,11.967,0.674c0.787,0.044,1.574,0.088,2.36,0.133
					c0.086-0.83,0.17-1.657,0.254-2.475c-0.456-0.027-0.912-0.055-1.368-0.082c-3.49-0.208-6.981-0.417-10.471-0.625
					c-7.146-0.426-14.294-0.835-21.441-1.254c-3.363-0.197-6.727-0.388-10.091-0.585c0.113-1.931,0.222-3.863,0.349-5.793
					c0.113-1.714,0.234-3.427,0.352-5.14c10.001,0.532,20.005,0.982,30.014,1.343c4.629,0.167,9.259,0.303,13.89,0.42
					c0.095-0.849,0.191-1.699,0.288-2.548c-14.679-0.442-29.352-1.031-44.016-1.796c0.239-3.388,0.486-6.776,0.748-10.163
					c10.269,0.587,20.533,1.255,30.789,2.027c4.506,0.339,9.011,0.758,13.517,1.154c0.106-0.864,0.211-1.728,0.318-2.592
					c-3.788-0.286-7.579-0.534-11.357-0.818c-7.268-0.547-14.54-1.053-21.814-1.514c-3.752-0.238-7.505-0.462-11.258-0.674
					c0.239-3.018,0.49-6.034,0.751-9.05c10.587,0.713,21.168,1.525,31.738,2.459c4.278,0.378,8.553,0.786,12.828,1.194
					c0.053,0.005,0.107,0.01,0.16,0.016c0.104-0.826,0.208-1.652,0.312-2.477c-3.281-0.316-6.562-0.623-9.846-0.914
					c-7.567-0.671-15.138-1.303-22.714-1.875c-4.085-0.308-8.172-0.598-12.259-0.874c0.126-1.413,0.245-2.827,0.376-4.239
					c0.156-1.684,0.334-3.367,0.51-5.051c10.93,0.834,21.848,1.817,32.75,2.958c4.095,0.429,8.187,0.882,12.277,1.354
					c0.103-0.82,0.208-1.639,0.312-2.459c-3.127-0.362-6.254-0.719-9.383-1.055c-7.644-0.822-15.296-1.557-22.954-2.231
					c-4.247-0.373-8.497-0.717-12.749-1.042c0.209-1.961,0.42-3.921,0.618-5.882c1.459,0.174,3.017,0.08,4.401,0.128
					c2.132,0.074,4.265,0.135,6.397,0.22c4.344,0.174,8.688,0.397,13.025,0.699c4.337,0.302,8.669,0.698,12.991,1.171
					c2.121,0.232,4.239,0.485,6.355,0.756c0.728,0.093,1.454,0.191,2.182,0.287c0.009-0.072,0.018-0.145,0.028-0.218
					c0.049-0.132,0.064-0.277,0.055-0.426c0.006-0.047,0.012-0.093,0.018-0.14C173.986,261.885,173.582,261.598,173.158,261.554z
					 M120.2,324.689c-0.031,0.614-0.066,1.233-0.099,1.848c-9.824-0.435-19.647-0.87-29.471-1.299
					c-3.879-0.169-7.759-0.355-11.639-0.503c-0.006-1.031-0.018-2.061-0.021-3.092c-0.007-2.195,0.005-4.391,0.017-6.586
					c3.22,0.198,6.442,0.377,9.654,0.583c7.144,0.459,14.294,0.854,21.441,1.268c3.501,0.203,7.002,0.401,10.503,0.604
					C120.452,319.905,120.32,322.296,120.2,324.689z M120.725,314.961c-9.78-0.57-19.561-1.144-29.342-1.7
					c-4.118-0.234-8.25-0.5-12.384-0.719c0.024-2.686,0.058-5.373,0.107-8.059c0.02-1.106,0.05-2.212,0.074-3.318
					c3.301,0.276,6.603,0.539,9.907,0.786c7.275,0.544,14.553,1.038,21.835,1.485c3.492,0.214,6.985,0.416,10.478,0.608
					C121.161,307.682,120.934,311.321,120.725,314.961z M121.573,301.466c-9.758-0.526-19.512-1.133-29.261-1.834
					c-4.051-0.291-8.101-0.604-12.151-0.91c-0.307-0.023-0.616-0.052-0.924-0.077c0.074-3.082,0.161-6.163,0.265-9.244
					c3.449,0.133,6.9,0.24,10.349,0.369c7.367,0.275,14.732,0.598,22.095,0.966c3.454,0.172,6.907,0.356,10.36,0.548
					C122.047,294.676,121.803,298.071,121.573,301.466z M122.507,288.595c-0.007,0.094-0.014,0.188-0.021,0.282
					c-9.881-0.541-19.766-1.005-29.655-1.386c-4.138-0.159-8.277-0.297-12.417-0.421c-0.276-0.008-0.556-0.02-0.833-0.029
					c0.116-3.169,0.253-6.337,0.405-9.504c3.342,0.134,6.685,0.271,10.026,0.421c7.59,0.34,15.177,0.727,22.762,1.173
					c3.488,0.205,6.975,0.424,10.461,0.652C122.983,282.719,122.739,285.657,122.507,288.595z M124.057,270.578
					c-0.209,2.247-0.406,4.495-0.603,6.742c-9.987-0.655-19.979-1.224-29.977-1.689c-4.289-0.199-8.58-0.375-12.871-0.533
					c-0.165-0.006-0.33-0.01-0.495-0.015c0.075-1.467,0.142-2.935,0.225-4.402c0.095-1.684,0.203-3.368,0.309-5.052
					c0.021,0.001,0.042,0.002,0.064,0.002c3.8,0.133,7.6,0.287,11.398,0.461c7.597,0.348,15.191,0.747,22.78,1.242
					c3.135,0.204,6.269,0.43,9.403,0.66C124.214,268.856,124.137,269.718,124.057,270.578z"/>
				<path style="fill:#E3E3E3;" d="M123.418,255.438c-0.665,4.094-1.038,8.262-1.508,12.345c-0.699,6.064-1.321,12.136-1.896,18.213
					c-1.134,11.989-2.006,24.005-2.65,36.03c-0.185,3.46-0.352,6.921-0.51,10.382c-0.151,3.309-0.68,6.952,0.041,10.208
					c0.26,1.174,1.982,1.086,2.29,0c0.806-2.838,0.586-6.04,0.685-8.971c0.103-3.05,0.224-6.099,0.37-9.147
					c0.288-6.014,0.649-12.024,1.055-18.032c0.811-12.016,1.918-24.008,3.237-35.978c0.541-4.914,1.341-9.87,1.779-14.825
					C125.349,255.587,124.384,255.512,123.418,255.438z"/>
			</g>
			<g>
				<path style="fill:#252237;" d="M349.034,167.937c-0.05-0.215-0.18-0.368-0.343-0.468c-0.075-0.223-0.219-0.432-0.429-0.584
					c-0.95-0.691-2.302-0.504-3.432-0.533c-1.298-0.033-2.596-0.049-3.895-0.047c-2.516,0.004-5.031,0.075-7.543,0.217
					c-2.512,0.141-5.021,0.348-7.522,0.621c-1.236,0.135-2.471,0.307-3.691,0.547c-1.149,0.226-2.381,0.416-3.364,1.083
					c-0.068,0.046-0.103,0.112-0.146,0.173c-0.198,0.136-0.363,0.338-0.463,0.614c-3.403,9.335-6.43,18.799-9.1,28.369
					c-1.335,4.784-2.578,9.594-3.729,14.425c-1.124,4.718-2.274,9.573-2.654,14.412c-0.02,0.248,0.901,2.23,1.379,3.032
					c0.606,1.018,1.228,2.026,1.819,3.052c1.22,2.115,2.365,4.28,3.426,6.479c2.125,4.402,3.723,8.952,5.186,13.606
					c0.039,0.124,0.11,0.247,0.196,0.363c0.101,1.09,1.071,1.658,2.067,1.804c1.472,0.215,3.042,0.09,4.526,0.099
					c1.711,0.01,3.421,0.014,5.132,0.003c3.255-0.021,6.511-0.09,9.762-0.275c1.704-0.097,3.407-0.223,5.106-0.395
					c1.289-0.13,3.229,0.045,4.159-0.971c0.148-0.161,0.205-0.36,0.199-0.553c0.293-0.196,0.514-0.511,0.55-0.951
					c1.807-21.875,2.875-43.812,3.152-65.76c0.039-3.064,0.054-6.129,0.055-9.193C349.438,174.129,349.715,170.852,349.034,167.937z
					"/>
				<path style="fill:#14A4BA;" d="M347.035,169.644c-0.04-0.502-0.413-0.768-0.798-0.806c-0.798-0.287-1.636-0.3-2.493-0.362
					c-1.124-0.081-2.249-0.144-3.375-0.175c-2.251-0.062-4.505-0.054-6.756,0.023c-2.251,0.078-4.502,0.215-6.742,0.452
					c-1.57,0.166-3.869,0.142-5.278,1.036c-0.354-0.022-0.725,0.134-0.875,0.557c-6.488,18.218-11.643,36.796-15.846,55.666
					c-0.048,0.216,0.121,0.744,0.176,0.898c0.747,2.09,2.342,3.998,3.44,5.928c1.102,1.937,2.128,3.919,3.073,5.937
					c1.998,4.266,3.475,8.668,4.862,13.16c0.124,0.401,0.436,0.575,0.756,0.583c0.083,0.098,0.193,0.181,0.347,0.229
					c1.827,0.569,4.215,0.103,6.112,0.03c2.22-0.085,4.441-0.169,6.661-0.254c2.138-0.082,4.276-0.165,6.414-0.248
					c2.059-0.079,4.366,0.083,6.371-0.404c0.2-0.049,0.341-0.184,0.432-0.35c0.157-0.153,0.28-0.348,0.311-0.612
					c2.461-20.996,3.848-42.132,3.703-63.277C347.488,181.664,347.514,175.619,347.035,169.644z"/>
				<path style="opacity:0.45;fill:#14A4BA;" d="M345.408,221.169c0.606-2.999-0.814-6.248-3.203-8.234
					c-3.196-2.657-7.488-3.605-11.537-3.926c-7.163-0.567-14.551,1.02-21.59-0.43c-1.497,5.79-2.904,11.607-4.206,17.456
					c-0.048,0.216,0.121,0.744,0.176,0.898c0.747,2.09,2.342,3.998,3.44,5.928c1.102,1.937,2.128,3.919,3.073,5.937
					c1.998,4.266,3.475,8.668,4.862,13.16c0.124,0.401,0.436,0.575,0.756,0.583c0.083,0.098,0.193,0.181,0.347,0.229
					c1.827,0.569,4.215,0.103,6.112,0.03c2.22-0.085,4.441-0.169,6.661-0.254c2.138-0.082,4.276-0.165,6.414-0.248
					c2.059-0.079,4.366,0.083,6.371-0.404c0.2-0.049,0.341-0.184,0.432-0.35c0.157-0.153,0.28-0.348,0.311-0.612
					c1.159-9.89,2.069-19.812,2.704-29.75C346.155,221.173,345.78,221.165,345.408,221.169z"/>
				<path style="opacity:0.45;fill:#26CBDF;" d="M339.359,231.536c-1.671-6.827-4.358-13.459-6.926-19.991
					c-2.541-6.464-5.507-12.718-8.384-19.036c-0.137-0.302-0.582-0.04-0.445,0.26c2.908,6.385,5.376,12.983,7.896,19.529
					c2.479,6.439,4.521,13.056,7.136,19.437C338.814,232.17,339.478,232.018,339.359,231.536z"/>
			</g>
			<g>
				<path style="fill:#47415C;" d="M303.545,163.622c-7.911-0.611-15.906-0.564-23.836-0.775
					c-8.044-0.215-16.084-0.573-24.126-0.839c-15.918-0.526-31.837-1.031-47.755-1.542c-4.477-0.144-8.954-0.298-13.431-0.421
					c-4.463-0.123-8.968-0.43-13.431-0.262c-0.282,0.011-0.487,0.12-0.622,0.277c-0.38-0.024-0.785,0.138-0.963,0.579
					c-3.794,9.39-7.484,18.823-11.008,28.318c-1.748,4.71-3.45,9.436-5.119,14.174c-1.69,4.798-3.538,9.602-4.839,14.521
					c-0.054,0.205-0.024,0.373,0.046,0.511c-0.187,0.429,0.012,1.002,0.643,1.036c4.217,0.225,8.49-0.033,12.713-0.07
					c4.238-0.038,8.477-0.066,12.715-0.072c8.477-0.012,16.954,0.053,25.43,0.184c16.875,0.261,33.728,0.984,50.582,1.834
					c9.541,0.481,19.085,1.075,28.624,1.447c0.621,0.024,0.862-0.502,0.756-0.964c0.002-0.009,0.008-0.013,0.01-0.022
					c2.21-9.308,4.057-18.692,6.394-27.973c2.33-9.255,4.728-18.584,7.837-27.612c0.066-0.192,0.068-0.365,0.032-0.521
					C304.793,164.913,304.568,163.701,303.545,163.622z"/>
				<path style="fill:#26CBDF;" d="M288.13,220.479c-5.949-0.243-11.981-0.571-17.828-0.889c-3.219-0.175-6.438-0.35-9.657-0.513
					c-14.899-0.751-32.569-1.557-50.652-1.837c-7.96-0.122-15.864-0.185-23.495-0.185l-1.969,0.001
					c-4.244,0.006-8.487,0.034-12.73,0.071c-1.332,0.012-2.669,0.045-4.007,0.079c-1.639,0.041-3.28,0.083-4.918,0.083
					c-0.811,0-1.566-0.01-2.28-0.031c0.979-3.51,2.244-7.032,3.47-10.446c0.361-1.007,0.722-2.012,1.076-3.017
					c1.783-5.06,3.453-9.686,5.107-14.143c3.213-8.657,6.715-17.676,10.699-27.551l0.319,0.02l0.28-0.357
					c0.728-0.021,1.458-0.031,2.189-0.031c2.265,0,4.592,0.091,6.843,0.178c1.256,0.049,2.512,0.098,3.764,0.132
					c3.329,0.092,6.657,0.201,9.985,0.309l15.177,0.488c12.004,0.385,24.009,0.77,36.014,1.166c3.151,0.104,6.301,0.222,9.452,0.341
					c4.811,0.181,9.787,0.368,14.688,0.499c2.246,0.06,4.498,0.099,6.751,0.138c5.184,0.09,10.53,0.183,15.76,0.542l0.012,0.052
					c-3.021,8.82-5.316,17.676-7.789,27.496c-1.351,5.362-2.555,10.835-3.719,16.126
					C289.855,212.903,289.014,216.726,288.13,220.479z"/>
				<path style="fill:#14A4BA;" d="M167.792,217.207c0.851-0.021,1.698-0.035,2.547-0.05c1.061-7.013,2.184-14.004,3.644-20.955
					c1.731-8.241,3.759-16.423,6.106-24.511c0.664-2.288,1.334-4.576,2.016-6.858c0.308-1.03,0.583-2.059,0.845-3.089
					c-0.468,0.005-0.937,0.006-1.404,0.02l-0.28,0.357l-0.319-0.02c-3.984,9.875-7.486,18.895-10.699,27.551
					c-1.654,4.457-3.325,9.083-5.107,14.143c-0.354,1.005-0.715,2.01-1.076,3.017c-1.226,3.415-2.491,6.936-3.47,10.446
					c0.714,0.021,1.469,0.031,2.28,0.031C164.512,217.29,166.153,217.248,167.792,217.207z"/>
				<path style="fill:#14A4BA;" d="M302.167,165.526c-5.229-0.359-10.576-0.452-15.76-0.542c-2.253-0.039-4.505-0.079-6.751-0.138
					c-4.9-0.131-9.876-0.318-14.688-0.499c-3.15-0.119-6.301-0.237-9.452-0.341c-12.004-0.396-24.009-0.781-36.014-1.166
					l-1.519-0.049c-1.169,6.592-2.341,13.184-3.516,19.775c-1.591,8.928-3.315,17.847-4.722,26.806
					c-0.04,0.253-0.076,0.507-0.116,0.761c-0.045,0.189-0.096,0.378-0.141,0.567c-5.798,2.095-11.677,3.937-17.67,5.44
					c-1.294,0.325-2.595,0.617-3.894,0.918c7.19,0.007,14.6,0.067,22.068,0.182c2.771,0.043,5.529,0.099,8.272,0.165l0,0
					c0.002,0,0.005,0,0.007,0c5.678,0.136,11.276,0.315,16.723,0.52c0.01,0,0.019,0.001,0.029,0.001
					c5.369,0.202,10.587,0.428,15.587,0.662c0.142,0.007,0.284,0.013,0.425,0.02c1.553,0.073,3.085,0.146,4.593,0.22
					c0.196,0.01,0.389,0.019,0.584,0.029c1.5,0.074,2.983,0.147,4.432,0.22c3.219,0.162,6.438,0.337,9.657,0.513
					c5.846,0.318,11.879,0.646,17.828,0.889c0.885-3.753,1.726-7.575,2.541-11.278c1.164-5.292,2.369-10.764,3.719-16.126
					c2.473-9.82,4.768-18.676,7.789-27.496L302.167,165.526z"/>
				<path style="opacity:0.45;fill:#14A4BA;" d="M290.67,209.201c0.032-0.147,0.066-0.297,0.098-0.444
					c-1.512-0.071-3.033-0.074-4.541-0.12c-4.136-0.125-8.272-0.243-12.408-0.354c-8.354-0.224-16.711-0.449-25.068-0.549
					c-3.916-0.047-7.863-0.227-11.776-0.026c-3.488,0.179-7.046,0.816-10.038,2.717c-2.767,1.759-4.75,4.243-6.247,7.047
					c4.844,0.126,9.637,0.277,14.304,0.453c0.01,0,0.019,0.001,0.029,0.001c5.369,0.202,10.587,0.428,15.587,0.662
					c0.142,0.007,0.284,0.013,0.425,0.02c1.553,0.073,3.085,0.146,4.593,0.22c0.196,0.01,0.389,0.019,0.584,0.029
					c1.5,0.074,2.983,0.147,4.432,0.22c3.219,0.162,6.438,0.337,9.657,0.513c5.846,0.318,11.879,0.646,17.828,0.889
					C289.014,216.726,289.855,212.903,290.67,209.201z"/>
				<path style="opacity:0.45;fill:#26CBDF;" d="M221.613,214.945c-9.074-14.98-18.506-29.754-27.952-44.5
					c-0.286-0.447-0.995-0.039-0.715,0.418c9.142,14.935,18.316,29.869,27.83,44.572
					C221.113,215.954,221.938,215.482,221.613,214.945z"/>
				<path style="opacity:0.45;fill:#26CBDF;" d="M214.883,194.563c-3.147-6.471-7.198-12.534-10.949-18.665
					c-0.314-0.514-1.119-0.048-0.809,0.473c3.675,6.18,7.151,12.592,11.408,18.397C214.686,194.977,214.999,194.801,214.883,194.563
					z"/>
				<path style="opacity:0.45;fill:#26CBDF;" d="M271.556,211.141c-2.986-6.045-6.999-11.637-10.647-17.298
					c-3.671-5.697-7.373-11.372-11.076-17.048c-0.459-0.704-1.592-0.052-1.133,0.662c3.703,5.773,7.405,11.545,11.14,17.297
					c3.642,5.61,7.078,11.512,11.336,16.68C271.36,211.658,271.671,211.374,271.556,211.141z"/>
			</g>
			<path style="fill:#47415C;" d="M333.81,186.597c-0.076-0.161-0.179-0.305-0.347-0.388c-1.072-0.526-2.289-0.804-3.448-1.072
				c-1.103-0.255-2.22-0.46-3.341-0.621c-1.108-0.158-2.216-0.255-3.335-0.283c-0.277-0.007-0.553-0.011-0.827-0.009
				c-1.539-2.728-3.839-3.178-4.426-3.261c-0.816-0.115-1.632-0.237-2.45-0.335c-1.617-0.194-3.192-0.374-4.822-0.301
				c-0.749,0.033-1.005,1.091-0.232,1.343c1.572,0.512,3.165,0.761,4.797,1.008c0.785,0.119,1.572,0.219,2.359,0.322
				c0.522,0.068,1.186,0.239,1.773,0.188c0.333,0.426,0.644,0.857,0.932,1.308c-0.185,0.053-0.37,0.1-0.553,0.177
				c-0.112,0.047-0.187,0.122-0.242,0.207c-0.018,0.011-0.039,0.015-0.055,0.029c-1.187,0.956-1.224,3.449-1.519,4.862
				c-0.402,1.924-0.792,3.851-1.167,5.781c-0.733,3.781-1.437,7.568-2.117,11.359c-0.663,3.701-1.3,7.407-1.92,11.116
				c-0.645,3.859-1.435,7.745-1.697,11.653c-0.009,0.135-0.196,1.461,0.325,1.847c0.008,0.006,0.019,0.01,0.027,0.016
				c-0.206,0.185-0.413,0.37-0.643,0.523c-1.318,0.875-2.814,0.747-4.313,0.523c-1.73-0.258-3.456-0.563-5.178-0.872
				c-1.66-0.299-3.546-0.888-5.231-0.56c-0.545,0.106-0.605,0.832-0.189,1.122c1.549,1.08,3.835,1.244,5.647,1.584
				c1.97,0.37,3.971,0.793,5.969,0.972c1.715,0.153,3.32-0.202,4.712-1.234c0.479-0.355,0.897-0.772,1.295-1.21
				c0.125,0.035,0.252,0.07,0.374,0.104c0.86,0.244,1.729,0.461,2.603,0.648c1.755,0.376,3.535,0.643,5.324,0.792
				c1.561,0.13,3.44,0.396,4.927-0.225c0.566-0.236,1.101-0.651,1.437-1.177c0.193-0.066,0.364-0.193,0.468-0.402
				c0.957-1.911,1.426-4.122,1.971-6.18c0.531-2.008,1.018-4.027,1.46-6.056c0.906-4.157,1.645-8.351,2.179-12.572
				c0.541-4.278,0.935-8.579,1.088-12.889C335.5,192.372,335.996,187.991,333.81,186.597z"/>
			<g>
				<path style="fill:#FFE699;" d="M69.965,317.745c-6.377,0.408-12.813,0.514-19.218,0.363c-1.55,4.54-2.684,9.21-3.434,13.95
					c3.107-0.026,6.246-0.408,9.343-0.457c3.787-0.06,7.575,0.031,11.355,0.27c0.139,0.009,0.255-0.017,0.364-0.051
					c0.412,0.091,0.876-0.076,1.004-0.588c0.495-1.977,0.658-4.058,0.903-6.08c0.256-2.112,0.507-4.224,0.754-6.337
					C71.1,318.264,70.493,317.711,69.965,317.745z"/>
				<path style="fill:#FFC100;" d="M57.567,328.178c-3.176,0.082-6.382,0.067-9.578,0.155c-0.251,1.237-0.479,2.479-0.676,3.726
					c3.107-0.026,6.246-0.408,9.343-0.457c3.787-0.06,7.575,0.031,11.355,0.27c0.139,0.009,0.255-0.017,0.364-0.051
					c0.412,0.091,0.876-0.076,1.004-0.588c0.276-1.102,0.446-2.236,0.587-3.375C65.833,327.965,61.7,328.071,57.567,328.178z"/>
				<path style="fill:#FF6D4A;" d="M54.226,318.155c-1.16-0.01-2.321-0.019-3.479-0.046c-1.55,4.54-2.684,9.21-3.434,13.95
					c1.617-0.013,3.244-0.122,4.868-0.232c0.166-2.129,0.401-4.253,0.719-6.36C53.269,323.021,53.659,320.566,54.226,318.155z"/>
				<path style="fill:#FF3100;" d="M52.534,328.254c-1.515,0.016-3.031,0.037-4.545,0.079c-0.251,1.237-0.479,2.479-0.676,3.726
					c1.617-0.013,3.244-0.122,4.868-0.232C52.274,330.634,52.395,329.442,52.534,328.254z"/>
				<path style="fill:#FFFFFF;" d="M69.965,317.745c-3.578,0.229-7.176,0.353-10.776,0.4c-0.369,2.125-0.723,4.248-0.909,6.408
					c-0.202,2.346-0.284,4.7-0.307,7.054c3.348-0.022,6.695,0.054,10.037,0.265c0.139,0.009,0.255-0.017,0.364-0.051
					c0.412,0.091,0.876-0.076,1.004-0.588c0.495-1.977,0.658-4.058,0.903-6.08c0.256-2.112,0.507-4.224,0.754-6.337
					C71.1,318.264,70.493,317.711,69.965,317.745z"/>
				<path style="fill:#EFDAD5;" d="M58.057,328.165c-0.046,1.147-0.073,2.295-0.084,3.443c3.348-0.022,6.695,0.054,10.037,0.265
					c0.139,0.009,0.255-0.017,0.364-0.051c0.412,0.091,0.876-0.076,1.004-0.588c0.276-1.102,0.446-2.236,0.587-3.375
					C65.996,327.961,62.027,328.063,58.057,328.165z"/>
			</g>
			<g>
				<path style="fill:#E3E3E3;" d="M252.951,386.05c-0.067-0.701-0.553-1.343-1.472-1.328c-26.152,0.43-52.277,0.563-78.423-0.282
					c-26.131-0.845-52.238-2.44-78.275-4.815c-14.61-1.333-29.173-3.235-43.786-4.48c-1.019-0.087-1.504,1.075-1.22,1.882
					c-0.523,0.899-0.491,2.327-0.491,3.252c-0.001,1.468,0.034,2.937,0.122,4.403c0.085,1.415,0.22,2.828,0.388,4.236
					c0.162,1.36,0.173,3.065,0.773,4.304c0.128,0.265,0.309,0.421,0.51,0.495c-0.121,0.576,0.1,1.217,0.782,1.311
					c12.817,1.749,25.79,2.6,38.685,3.592c12.969,0.997,25.949,1.84,38.938,2.549c25.811,1.408,51.648,2.263,77.496,2.548
					c14.57,0.16,29.174,0.302,43.741-0.117c0.696-0.02,1.115-0.452,1.263-0.967c0.232-0.104,0.421-0.305,0.484-0.648
					c0.255-1.392,0.215-2.871,0.289-4.283c0.07-1.337,0.14-2.674,0.21-4.011c0.07-1.337,0.159-2.674,0.205-4.012
					C253.208,388.492,253.376,387.179,252.951,386.05z"/>
				<path style="fill:#ADADAD;" d="M242.513,397.555c-31.741,0.477-63.509,0.029-95.226-1.287c-18.559-0.77-37.1-1.839-55.623-3.171
					c0.401-0.218,0.811-0.423,1.239-0.596c2.504-1.014,5-1.144,7.649-1.384c1.556-0.142,2.94-0.129,4.499,0.092
					c1.403,0.199,2.794,0.516,4.206,0.647c0.854,0.079,0.977-1.231,0.197-1.458c-1.587-0.462-3.264-0.702-4.896-0.959
					c-1.574-0.248-3.139-0.676-4.718-0.831c-2.85-0.28-6.014,0.306-8.627,1.448c-1.486,0.649-2.849,1.59-4.053,2.718
					c-11.554-0.859-23.102-1.82-34.641-2.885c-0.883-0.082-1.768-0.146-2.653-0.216c0.109,1.2,0.205,2.528,0.699,3.548
					c0.128,0.265,0.309,0.421,0.51,0.495c-0.121,0.576,0.1,1.217,0.782,1.311c10.55,1.439,21.205,2.27,31.836,3.073
					c0.972,0.074,1.944,0.147,2.915,0.221l0,0c1.312,0.099,2.623,0.198,3.934,0.299c12.969,0.997,25.949,1.84,38.938,2.549
					c25.811,1.408,51.648,2.263,77.496,2.548c14.57,0.16,29.174,0.302,43.741-0.117c0.696-0.02,1.115-0.452,1.263-0.967
					c0.232-0.104,0.421-0.305,0.484-0.648c0.255-1.392,0.215-2.871,0.289-4.283c0.005-0.092,0.01-0.183,0.014-0.275
					C249.369,397.233,245.904,397.504,242.513,397.555z"/>
				<path style="fill:#252237;" d="M196.851,399.406c-1.77-3.46-5.014-5.07-8.758-5.506c-4.586-0.535-9.282-0.538-13.892-0.776
					c-4.773-0.247-9.546-0.494-14.319-0.741c-9.629-0.499-19.259-0.988-28.889-1.482c-9.391-0.482-18.831-1.26-28.236-1.313
					c-4.46-0.025-9.157,0.6-12.699,3.54c-1.612,1.338-2.909,3.179-3.533,5.186c1.34,0.101,2.679,0.202,4.017,0.305
					c12.969,0.997,25.949,1.84,38.938,2.549c22.911,1.25,45.843,2.038,68.785,2.404C197.962,402.13,197.525,400.724,196.851,399.406
					z"/>
			</g>
			<g>
				<path style="fill:#C7212D;" d="M315.329,323.605c-1.411-9.141-3.812-18.163-7.281-26.741
					c-3.32-8.211-7.484-16.447-13.504-23.031c-6.219-6.801-14.418-10.498-23.491-11.62c-8.913-1.103-18.178-0.086-26.866,2.057
					c-17.486,4.314-33.494,13.658-46.541,25.99c-13.166,12.445-23.415,27.775-31.073,44.133c-0.689,1.471-1.306,2.974-1.906,4.483
					c-5.676-0.358-11.389-0.412-17.072-0.606c-5.812-0.198-11.625-0.395-17.437-0.601c-11.706-0.414-23.415-0.752-35.123-1.118
					c-6.629-0.207-13.298-0.6-19.928-0.298c-0.107,0.005-0.187,0.041-0.279,0.063c-0.399-0.157-0.863-0.094-1.244,0.342
					c-1.286,1.471-2.303,3.192-3.403,4.804c-1.09,1.596-2.185,3.185-3.252,4.797c-2.176,3.288-4.299,6.604-6.384,9.95
					c-2.041,3.275-4.019,6.589-5.979,9.913c-0.981,1.663-1.933,3.34-2.873,5.026c-0.784,1.408-2.405,3.418-2.054,5.088
					c0.028,0.131,0.103,0.241,0.195,0.338c0.048,0.466,0.319,0.885,0.864,0.969c12.968,2.001,26.086,3.228,39.148,4.442
					c13.124,1.22,26.268,2.225,39.424,3.037c26.321,1.624,52.666,2.386,79.035,2.395c7.415,0.002,14.828-0.082,22.242-0.208
					c7.413-0.126,14.837-0.215,22.235-0.724c0.849-0.058,3.493-25.822,5.684-37.473c1.097-5.837,2.474-11.632,4.283-17.291
					c1.391-4.353,3.141-8.834,6.117-12.37c2.9-3.446,6.878-5.679,11.42-5.884c4.35-0.197,8.644,1.212,12.292,3.528
					c8.577,5.445,11.931,15.797,12.902,25.432c1.306,12.944,0.657,39.353,0.525,39.659c-0.127,0.294-0.117,0.579,0.106,0.824
					c0.555,0.609,1.404,0.495,2.151,0.423c0.699-0.068,1.393-0.151,2.088-0.251c1.295-0.187,2.584-0.435,3.874-0.657
					c0.603-0.104,0.891-0.719,0.952-1.251c0.074-0.642,0.151-1.283,0.215-1.925c0.029-0.295,0.054-0.585,0.061-0.874
					C317.62,360.157,318.137,341.786,315.329,323.605z"/>
				<path style="fill:#E3626B;" d="M283.244,287.574c-3.258-1.476-7.227-1.606-10.756-1.508c-3.638,0.1-7.282,0.669-10.771,1.706
					c-6.512,1.936-12.319,5.578-17.107,10.37c-1.316,1.316-2.532,2.725-3.662,4.204c-1.053,1.378-2.344,3.02-2.732,4.74
					c-0.143,0.635,0.59,1.054,1.071,0.623c1.419-1.271,2.392-3.136,3.596-4.616c1.242-1.528,2.596-2.971,4.05-4.299
					c2.924-2.67,6.343-4.882,9.924-6.561c3.998-1.875,8.369-3.08,12.763-3.508c2.199-0.214,4.414-0.246,6.619-0.104
					c2.192,0.141,4.352,0.583,6.546,0.644C283.641,289.286,284.081,287.953,283.244,287.574z"/>
				<path style="fill:#E3626B;" d="M296.594,298.297c-0.299-0.985-1.082-1.77-1.754-2.524c-0.615-0.689-1.253-1.356-1.914-2.001
					c-0.66-0.645-1.339-1.273-2.053-1.858c-0.387-0.317-0.78-0.625-1.177-0.93c-0.43-0.33-0.953-0.649-1.516-0.615
					c-0.549,0.033-0.911,0.496-0.791,1.038c0.201,0.912,1.237,1.514,1.895,2.096c0.691,0.612,1.377,1.229,2.036,1.876
					c0.643,0.631,1.265,1.283,1.864,1.955c0.627,0.704,1.193,1.547,2.015,2.035C295.9,299.784,296.837,299.094,296.594,298.297z"/>
				<path style="fill:#781C42;" d="M288.797,267.871c-3.192-3.089-7.576-4.858-11.802-6.027c-4.376-1.211-8.943-1.696-13.476-1.714
					c-9.433-0.038-18.891,1.868-27.756,5.03c-17.752,6.333-33.395,17.949-45.534,32.276c-6.874,8.113-12.936,16.923-17.924,26.316
					c-0.334,0.629,0.594,1.178,0.958,0.56c9.304-15.804,20.494-30.489,35.007-41.876c14.571-11.433,32.336-19.151,50.934-20.28
					c4.983-0.303,10.013-0.091,14.913,0.907c5.091,1.037,9.516,3.177,14.055,5.618C288.676,268.952,289.23,268.29,288.797,267.871z"
					/>
				<path style="fill:#781C42;" d="M255.374,333.619c-3.493,7.623-4.475,16.025-6.364,24.098c-0.129,0.79-0.258,1.58-0.391,2.369
					c-1.099,6.512-2.509,12.997-4.827,19.19c-0.196-0.098-0.426-0.156-0.701-0.147c-27.107,0.949-54.234,0.933-81.341,0.002
					c-27.102-0.931-54.172-2.82-81.141-5.663c-7.519-0.793-15.029-1.664-22.531-2.598c-1.926-0.24-3.853-0.505-5.782-0.777
					c-0.198,0.353-0.405,0.7-0.602,1.054c-0.784,1.408-2.405,3.418-2.054,5.088c0.028,0.131,0.103,0.241,0.195,0.338
					c0.048,0.466,0.319,0.885,0.864,0.969c12.968,2.001,26.086,3.228,39.148,4.442c13.124,1.22,26.268,2.225,39.424,3.037
					c26.321,1.624,52.666,2.386,79.035,2.395c7.415,0.002,14.828-0.082,22.242-0.208c7.413-0.126,14.837-0.215,22.235-0.724
					c0.849-0.058,3.493-25.822,5.684-37.473c1.097-5.837,2.474-11.632,4.283-17.291c1.391-4.353,3.141-8.834,6.117-12.37
					c1.969-2.34,4.444-4.1,7.246-5.066C266.544,316.456,259.466,324.689,255.374,333.619z"/>
				<path style="fill:#781C42;" d="M308.823,383.264c0.224-1.455,0.465-2.909,0.621-4.365c0.386-3.582,0.073-7.115-0.092-10.702
					c-0.379-8.263-0.562-16.022-2.703-24.083c-0.534-2.011-1.116-4.008-1.769-5.976c0.256,1.433,0.458,2.868,0.602,4.288
					c1.306,12.944,0.657,39.353,0.525,39.659c-0.127,0.294-0.117,0.579,0.106,0.824c0.555,0.609,1.404,0.495,2.151,0.423
					C308.451,383.313,308.637,383.285,308.823,383.264z"/>
			</g>
			<g>
				<path style="fill:#FFE699;" d="M246.098,322.733c-0.161-0.25-0.413-0.444-0.781-0.48c-4.791-0.463-9.545-1.057-14.356-1.369
					c-4.866-0.315-9.76-0.534-14.636-0.588c-0.643-0.007-1.286-0.014-1.929-0.022c-0.145-0.015-0.289-0.033-0.433-0.048
					c-2.628-0.273-5.26-0.507-7.895-0.702c-2.635-0.195-5.272-0.353-7.912-0.465c-1.32-0.056-2.64-0.103-3.96-0.139
					c-1.117-0.031-2.285-0.13-3.303,0.379c-0.091,0.046-0.151,0.12-0.203,0.197c-0.002,0-0.004,0-0.006-0.001
					c-0.316-0.03-0.705,0.265-0.762,0.58c-0.157,0.872-0.389,1.73-0.57,2.597c-0.146,0.696-0.333,1.424-0.297,2.141
					c-0.22,1.055-0.404,2.118-0.539,3.187c-0.164,1.298-0.317,2.636-0.283,3.946c0.036,1.41,0.364,2.748,0.572,4.129
					c0.06,0.399,9.881,0.712,13.873,0.872c4.535,0.182,9.068,0.4,13.599,0.652c4.448,0.247,8.895,0.529,13.339,0.834
					c4.517,0.31,9.072,0.426,13.57,0.947c0.415,0.048,0.903-0.349,0.985-0.75c0.518-2.54,0.996-5.081,1.449-7.634
					c0.441-2.485,0.951-4.951,1.046-7.48C246.683,323.085,246.421,322.827,246.098,322.733z"/>
				<path style="fill:#FFC100;" d="M244.673,332.852c-2.818-0.087-5.636-0.174-8.453-0.259c-5.635-0.17-11.271-0.333-16.907-0.49
					c-6.298-0.175-12.597-0.348-18.896-0.535c-4.026-0.12-8.11-0.375-12.177-0.437c-0.007,0.272-0.013,0.544-0.006,0.815
					c0.036,1.41,0.364,2.748,0.572,4.129c0.06,0.399,9.881,0.712,13.873,0.872c4.535,0.182,9.068,0.4,13.599,0.652
					c4.448,0.247,8.895,0.529,13.339,0.834c4.517,0.31,9.072,0.426,13.57,0.947c0.415,0.048,0.903-0.349,0.985-0.75
					c0.391-1.917,0.754-3.836,1.105-5.759C245.076,332.865,244.874,332.858,244.673,332.852z"/>
				<path style="fill:#FF6D4A;" d="M246.098,322.733c-0.161-0.25-0.413-0.444-0.781-0.48c-4.233-0.409-8.44-0.91-12.68-1.238
					c-0.011,0.142-0.022,0.283-0.029,0.425c-0.194,3.838-0.697,7.392-2.438,10.878c-1.109,2.221-2.531,4.126-4.15,5.89
					c1.199,0.079,2.398,0.143,3.597,0.225c4.517,0.31,9.072,0.426,13.57,0.947c0.415,0.048,0.903-0.349,0.985-0.75
					c0.518-2.54,0.996-5.081,1.449-7.634c0.441-2.485,0.951-4.951,1.046-7.48C246.683,323.085,246.421,322.827,246.098,322.733z"/>
				<path style="fill:#FFFFFF;" d="M214.397,320.274c-0.145-0.015-0.289-0.033-0.433-0.048c-2.628-0.273-5.26-0.507-7.895-0.702
					c-2.635-0.195-5.272-0.353-7.912-0.465c-1.32-0.056-2.64-0.103-3.96-0.139c-1.117-0.031-2.285-0.13-3.303,0.379
					c-0.091,0.046-0.151,0.12-0.203,0.197c-0.002,0-0.004,0-0.006-0.001c-0.316-0.03-0.705,0.265-0.762,0.58
					c-0.157,0.872-0.389,1.73-0.57,2.597c-0.146,0.696-0.333,1.424-0.297,2.141c-0.22,1.055-0.404,2.118-0.539,3.187
					c-0.164,1.298-0.317,2.636-0.283,3.946c0.036,1.41,0.364,2.748,0.572,4.129c0.06,0.399,9.881,0.712,13.873,0.872
					c3.468,0.139,6.934,0.318,10.4,0.498c1.327-5.599,2.009-11.407,2.434-17.159C215.142,320.283,214.77,320.279,214.397,320.274z"
					/>
				<path style="fill:#FF3100;" d="M244.673,332.852c-2.818-0.087-5.636-0.174-8.453-0.259c-2.034-0.061-4.069-0.117-6.103-0.177
					c-1.102,2.178-2.502,4.055-4.096,5.792c1.199,0.079,2.398,0.143,3.597,0.225c4.517,0.31,9.072,0.426,13.57,0.947
					c0.415,0.048,0.903-0.349,0.985-0.75c0.391-1.917,0.754-3.836,1.105-5.759C245.076,332.865,244.874,332.858,244.673,332.852z"/>
				<path style="fill:#EFDAD5;" d="M213.08,337.446c0.429-1.81,0.785-3.644,1.092-5.489c-4.585-0.128-9.169-0.253-13.754-0.389
					c-4.026-0.12-8.11-0.375-12.177-0.437c-0.007,0.272-0.013,0.544-0.006,0.815c0.036,1.41,0.364,2.748,0.572,4.129
					c0.06,0.399,9.881,0.712,13.873,0.872C206.147,337.087,209.614,337.266,213.08,337.446z"/>
			</g>
		</g>
	</g>
</g>
</svg>
