<?xml version="1.0" encoding="utf-8"?>
<!-- Generator: Adobe Illustrator 27.5.0, SVG Export Plug-In . SVG Version: 6.00 Build 0)  -->
<svg version="1.1" xmlns="http://www.w3.org/2000/svg" xmlns:xlink="http://www.w3.org/1999/xlink" x="0px" y="0px"
	 viewBox="0 0 202.634 180.787" style="enable-background:new 0 0 202.634 180.787;" xml:space="preserve">
<g id="Layer_1">
</g>
<g id="Layer_2">
	<g>
		<linearGradient id="SVGID_1_" gradientUnits="userSpaceOnUse" x1="110.6635" y1="-13.0495" x2="51.9659" y2="170.8126">
			<stop  offset="0" style="stop-color:#A0854E"/>
			<stop  offset="1" style="stop-color:#A07F53"/>
		</linearGradient>
		<polygon style="fill:url(#SVGID_1_);" points="148.843,176.268 5.066,161.214 5.066,8.813 148.843,11.166 		"/>
		
			<linearGradient id="SVGID_00000147178598023968073420000004823236513775468719_" gradientUnits="userSpaceOnUse" x1="144.7539" y1="18.2475" x2="195.0551" y2="147.897">
			<stop  offset="0" style="stop-color:#C8A566"/>
			<stop  offset="1" style="stop-color:#CBA560"/>
		</linearGradient>
		<polygon style="fill:url(#SVGID_00000147178598023968073420000004823236513775468719_);" points="148.843,176.268 
			195.076,140.529 197.568,6.894 148.843,11.166 		"/>
		
			<linearGradient id="SVGID_00000055707787947121315480000015550110027868669618_" gradientUnits="userSpaceOnUse" x1="99.0106" y1="-5.4616" x2="105.7669" y2="33.5405">
			<stop  offset="0.0058" style="stop-color:#E4B865"/>
			<stop  offset="1" style="stop-color:#D6B786"/>
		</linearGradient>
		<polygon style="fill:url(#SVGID_00000055707787947121315480000015550110027868669618_);" points="5.066,8.813 148.843,11.166 
			197.568,6.894 84.914,4.52 		"/>
		<polygon style="fill:#746042;" points="67.926,9.842 87.918,10.169 87.918,44.72 67.926,44.72 		"/>
		<polygon style="fill:#BF9A74;" points="87.918,10.169 67.926,9.842 117.739,5.211 136.009,5.596 		"/>
		<polygon style="fill:#9E7C64;" points="174.053,8.956 174.053,41.383 180.539,40.262 180.539,8.387 		"/>
		<polygon style="fill:#E2BF80;" points="171.437,134.611 171.437,158.802 177.923,153.788 177.923,129.992 		"/>
		<g>
			<polygon style="fill:#A8865D;" points="49.47,158.287 12.681,154.879 12.681,121.979 49.47,124.538 			"/>
			<path style="fill:#231F20;" d="M49.97,158.835l-37.789-3.5v-33.892l37.789,2.629V158.835z M13.181,154.423l35.789,3.316v-32.734
				l-35.789-2.489V154.423z"/>
		</g>
		<g>
			<path style="fill:#231F20;" d="M44.496,130.925c-0.018,0-0.035-0.001-0.053-0.003l-27.346-2.85
				c-0.274-0.028-0.475-0.274-0.445-0.549c0.028-0.275,0.279-0.476,0.549-0.445l27.346,2.85c0.274,0.028,0.475,0.274,0.445,0.549
				C44.965,130.734,44.748,130.925,44.496,130.925z"/>
			<path style="fill:#231F20;" d="M44.234,136.598c-0.018,0-0.034-0.001-0.052-0.002l-27.12-2.768
				c-0.274-0.028-0.475-0.273-0.446-0.548c0.028-0.275,0.271-0.469,0.548-0.447l27.12,2.768c0.274,0.028,0.475,0.273,0.446,0.548
				C44.704,136.406,44.487,136.598,44.234,136.598z"/>
			<path style="fill:#231F20;" d="M39.401,141.72c-0.017,0-0.034-0.001-0.051-0.002l-22.322-2.23
				c-0.274-0.027-0.476-0.273-0.447-0.547c0.027-0.274,0.27-0.471,0.547-0.448l22.322,2.23c0.274,0.027,0.476,0.272,0.447,0.547
				C39.872,141.528,39.654,141.72,39.401,141.72z"/>
			<path style="fill:#231F20;" d="M39.166,147.221c-0.017,0-0.033-0.001-0.05-0.003l-22.123-2.163
				c-0.274-0.027-0.476-0.271-0.449-0.546c0.027-0.275,0.273-0.469,0.547-0.449l22.123,2.164c0.274,0.027,0.476,0.271,0.449,0.546
				C39.638,147.028,39.42,147.221,39.166,147.221z"/>
			<path style="fill:#231F20;" d="M32.575,152.025c-0.017,0-0.032-0.001-0.049-0.002l-15.565-1.49
				c-0.274-0.026-0.476-0.271-0.45-0.545c0.027-0.275,0.275-0.481,0.546-0.45l15.566,1.49c0.274,0.026,0.477,0.271,0.45,0.546
				C33.046,151.831,32.829,152.025,32.575,152.025z"/>
		</g>
	</g>
</g>
</svg>
